<svg xmlns="http://www.w3.org/2000/svg" xmlns:xlink="http://www.w3.org/1999/xlink" width="816" height="216" viewBox="0 0 816 216" role="img" aria-label="gittype">
  <style>
    .cell {
      animation: cell-in 420ms cubic-bezier(0.16, 1, 0.3, 1) backwards;
      transform-origin: center;
      transform-box: fill-box;
    }
    @keyframes cell-in {
      from { opacity: 0; transform: scale(0.2); }
      to   { opacity: 1; transform: scale(1); }
    }
    .cell.active {
      animation: cell-in 420ms cubic-bezier(0.16, 1, 0.3, 1) backwards,
                 wave 1.5s ease-in-out infinite;
    }
    @keyframes wave {
      0%, 100% { filter: brightness(1) drop-shadow(0 0 0 transparent); }
      4%       { filter: brightness(2.1) drop-shadow(0 0 4px currentColor); }
      12%      { filter: brightness(1) drop-shadow(0 0 0 transparent); }
    }
    .fade-in {
      animation: fade-in 520ms ease-out backwards;
    }
    @keyframes fade-in {
      from { opacity: 0; transform: translateY(4px); }
      to   { opacity: 1; transform: translateY(0); }
    }
    text.fade-in, image.fade-in, g.fade-in {
      transform-box: fill-box;
    }
  </style>
  <rect width="816" height="216" fill="#0d1117" />
  <g transform="translate(8, 8)">
    <a href="https://github.com/unhappychoice/gittype" target="_blank">
    <g transform="translate(0, 0)">
      <g class="fade-in" style="animation-delay:0ms">
      <rect x="12" y="12" width="360" height="176" rx="6" ry="6" fill="#21262d" />
      <text x="192" y="100" font-family="-apple-system, BlinkMacSystemFont, 'Segoe UI', Helvetica, Arial, sans-serif" font-size="13" fill="#8d96a0" text-anchor="middle" dominant-baseline="middle">gittype</text>
    </g>
      <text class="fade-in" style="animation-delay:80ms" x="390" y="28" font-family="-apple-system, BlinkMacSystemFont, 'Segoe UI', Helvetica, Arial, sans-serif" font-size="16" font-weight="700" fill="#58a6ff">gittype</text>
      <text class="fade-in" style="animation-delay:160ms" x="786" y="28" font-family="-apple-system, BlinkMacSystemFont, 'Segoe UI', Helvetica, Arial, sans-serif" font-size="13" font-weight="600" fill="#e3b341" text-anchor="end">★ 1,350</text>
      <text class="fade-in" style="animation-delay:140ms" x="390" y="44" font-family="-apple-system, BlinkMacSystemFont, 'Segoe UI', Helvetica, Arial, sans-serif" font-size="11" fill="#8d96a0">A CLI code-typing game that turns your source code into typ…</text>
      <rect class="cell" style="animation-delay:200ms" x="390" y="60" width="6" height="6" rx="1.5" ry="1.5" fill="#161b22" /><rect class="cell" style="animation-delay:203ms" x="390" y="67" width="6" height="6" rx="1.5" ry="1.5" fill="#161b22" /><rect class="cell" style="animation-delay:206ms" x="390" y="74" width="6" height="6" rx="1.5" ry="1.5" fill="#161b22" /><rect class="cell" style="animation-delay:209ms" x="390" y="81" width="6" height="6" rx="1.5" ry="1.5" fill="#161b22" /><rect class="cell" style="animation-delay:212ms" x="390" y="88" width="6" height="6" rx="1.5" ry="1.5" fill="#161b22" /><rect class="cell" style="animation-delay:215ms" x="390" y="95" width="6" height="6" rx="1.5" ry="1.5" fill="#161b22" /><rect class="cell" style="animation-delay:218ms" x="390" y="102" width="6" height="6" rx="1.5" ry="1.5" fill="#161b22" /><rect class="cell" style="animation-delay:212ms" x="397" y="60" width="6" height="6" rx="1.5" ry="1.5" fill="#161b22" /><rect class="cell" style="animation-delay:215ms" x="397" y="67" width="6" height="6" rx="1.5" ry="1.5" fill="#161b22" /><rect class="cell" style="animation-delay:218ms" x="397" y="74" width="6" height="6" rx="1.5" ry="1.5" fill="#161b22" /><rect class="cell" style="animation-delay:221ms" x="397" y="81" width="6" height="6" rx="1.5" ry="1.5" fill="#161b22" /><rect class="cell" style="animation-delay:224ms" x="397" y="88" width="6" height="6" rx="1.5" ry="1.5" fill="#161b22" /><rect class="cell" style="animation-delay:227ms" x="397" y="95" width="6" height="6" rx="1.5" ry="1.5" fill="#161b22" /><rect class="cell" style="animation-delay:230ms" x="397" y="102" width="6" height="6" rx="1.5" ry="1.5" fill="#161b22" /><rect class="cell" style="animation-delay:224ms" x="404" y="60" width="6" height="6" rx="1.5" ry="1.5" fill="#161b22" /><rect class="cell" style="animation-delay:227ms" x="404" y="67" width="6" height="6" rx="1.5" ry="1.5" fill="#161b22" /><rect class="cell" style="animation-delay:230ms" x="404" y="74" width="6" height="6" rx="1.5" ry="1.5" fill="#161b22" /><rect class="cell" style="animation-delay:233ms" x="404" y="81" width="6" height="6" rx="1.5" ry="1.5" fill="#161b22" /><rect class="cell" style="animation-delay:236ms" x="404" y="88" width="6" height="6" rx="1.5" ry="1.5" fill="#161b22" /><rect class="cell" style="animation-delay:239ms" x="404" y="95" width="6" height="6" rx="1.5" ry="1.5" fill="#161b22" /><rect class="cell" style="animation-delay:242ms" x="404" y="102" width="6" height="6" rx="1.5" ry="1.5" fill="#161b22" /><rect class="cell" style="animation-delay:236ms" x="411" y="60" width="6" height="6" rx="1.5" ry="1.5" fill="#161b22" /><rect class="cell" style="animation-delay:239ms" x="411" y="67" width="6" height="6" rx="1.5" ry="1.5" fill="#161b22" /><rect class="cell" style="animation-delay:242ms" x="411" y="74" width="6" height="6" rx="1.5" ry="1.5" fill="#161b22" /><rect class="cell" style="animation-delay:245ms" x="411" y="81" width="6" height="6" rx="1.5" ry="1.5" fill="#161b22" /><rect class="cell" style="animation-delay:248ms" x="411" y="88" width="6" height="6" rx="1.5" ry="1.5" fill="#161b22" /><rect class="cell" style="animation-delay:251ms" x="411" y="95" width="6" height="6" rx="1.5" ry="1.5" fill="#161b22" /><rect class="cell" style="animation-delay:254ms" x="411" y="102" width="6" height="6" rx="1.5" ry="1.5" fill="#161b22" /><rect class="cell" style="animation-delay:248ms" x="418" y="60" width="6" height="6" rx="1.5" ry="1.5" fill="#161b22" /><rect class="cell" style="animation-delay:251ms" x="418" y="67" width="6" height="6" rx="1.5" ry="1.5" fill="#161b22" /><rect class="cell" style="animation-delay:254ms" x="418" y="74" width="6" height="6" rx="1.5" ry="1.5" fill="#161b22" /><rect class="cell" style="animation-delay:257ms" x="418" y="81" width="6" height="6" rx="1.5" ry="1.5" fill="#161b22" /><rect class="cell" style="animation-delay:260ms" x="418" y="88" width="6" height="6" rx="1.5" ry="1.5" fill="#161b22" /><rect class="cell" style="animation-delay:263ms" x="418" y="95" width="6" height="6" rx="1.5" ry="1.5" fill="#161b22" /><rect class="cell" style="animation-delay:266ms" x="418" y="102" width="6" height="6" rx="1.5" ry="1.5" fill="#161b22" /><rect class="cell" style="animation-delay:260ms" x="425" y="60" width="6" height="6" rx="1.5" ry="1.5" fill="#161b22" /><rect class="cell" style="animation-delay:263ms" x="425" y="67" width="6" height="6" rx="1.5" ry="1.5" fill="#161b22" /><rect class="cell" style="animation-delay:266ms" x="425" y="74" width="6" height="6" rx="1.5" ry="1.5" fill="#161b22" /><rect class="cell" style="animation-delay:269ms" x="425" y="81" width="6" height="6" rx="1.5" ry="1.5" fill="#161b22" /><rect class="cell" style="animation-delay:272ms" x="425" y="88" width="6" height="6" rx="1.5" ry="1.5" fill="#161b22" /><rect class="cell" style="animation-delay:275ms" x="425" y="95" width="6" height="6" rx="1.5" ry="1.5" fill="#161b22" /><rect class="cell" style="animation-delay:278ms" x="425" y="102" width="6" height="6" rx="1.5" ry="1.5" fill="#161b22" /><rect class="cell" style="animation-delay:272ms" x="432" y="60" width="6" height="6" rx="1.5" ry="1.5" fill="#161b22" /><rect class="cell" style="animation-delay:275ms" x="432" y="67" width="6" height="6" rx="1.5" ry="1.5" fill="#161b22" /><rect class="cell" style="animation-delay:278ms" x="432" y="74" width="6" height="6" rx="1.5" ry="1.5" fill="#161b22" /><rect class="cell" style="animation-delay:281ms" x="432" y="81" width="6" height="6" rx="1.5" ry="1.5" fill="#161b22" /><rect class="cell" style="animation-delay:284ms" x="432" y="88" width="6" height="6" rx="1.5" ry="1.5" fill="#161b22" /><rect class="cell" style="animation-delay:287ms" x="432" y="95" width="6" height="6" rx="1.5" ry="1.5" fill="#161b22" /><rect class="cell" style="animation-delay:290ms" x="432" y="102" width="6" height="6" rx="1.5" ry="1.5" fill="#161b22" /><rect class="cell" style="animation-delay:284ms" x="439" y="60" width="6" height="6" rx="1.5" ry="1.5" fill="#161b22" /><rect class="cell" style="animation-delay:287ms" x="439" y="67" width="6" height="6" rx="1.5" ry="1.5" fill="#161b22" /><rect class="cell" style="animation-delay:290ms" x="439" y="74" width="6" height="6" rx="1.5" ry="1.5" fill="#161b22" /><rect class="cell" style="animation-delay:293ms" x="439" y="81" width="6" height="6" rx="1.5" ry="1.5" fill="#161b22" /><rect class="cell" style="animation-delay:296ms" x="439" y="88" width="6" height="6" rx="1.5" ry="1.5" fill="#161b22" /><rect class="cell" style="animation-delay:299ms" x="439" y="95" width="6" height="6" rx="1.5" ry="1.5" fill="#161b22" /><rect class="cell" style="animation-delay:302ms" x="439" y="102" width="6" height="6" rx="1.5" ry="1.5" fill="#161b22" /><rect class="cell" style="animation-delay:296ms" x="446" y="60" width="6" height="6" rx="1.5" ry="1.5" fill="#161b22" /><rect class="cell" style="animation-delay:299ms" x="446" y="67" width="6" height="6" rx="1.5" ry="1.5" fill="#161b22" /><rect class="cell" style="animation-delay:302ms" x="446" y="74" width="6" height="6" rx="1.5" ry="1.5" fill="#161b22" /><rect class="cell" style="animation-delay:305ms" x="446" y="81" width="6" height="6" rx="1.5" ry="1.5" fill="#161b22" /><rect class="cell" style="animation-delay:308ms" x="446" y="88" width="6" height="6" rx="1.5" ry="1.5" fill="#161b22" /><rect class="cell" style="animation-delay:311ms" x="446" y="95" width="6" height="6" rx="1.5" ry="1.5" fill="#161b22" /><rect class="cell" style="animation-delay:314ms" x="446" y="102" width="6" height="6" rx="1.5" ry="1.5" fill="#161b22" /><rect class="cell" style="animation-delay:308ms" x="453" y="60" width="6" height="6" rx="1.5" ry="1.5" fill="#161b22" /><rect class="cell" style="animation-delay:311ms" x="453" y="67" width="6" height="6" rx="1.5" ry="1.5" fill="#161b22" /><rect class="cell" style="animation-delay:314ms" x="453" y="74" width="6" height="6" rx="1.5" ry="1.5" fill="#161b22" /><rect class="cell" style="animation-delay:317ms" x="453" y="81" width="6" height="6" rx="1.5" ry="1.5" fill="#161b22" /><rect class="cell" style="animation-delay:320ms" x="453" y="88" width="6" height="6" rx="1.5" ry="1.5" fill="#161b22" /><rect class="cell" style="animation-delay:323ms" x="453" y="95" width="6" height="6" rx="1.5" ry="1.5" fill="#161b22" /><rect class="cell" style="animation-delay:326ms" x="453" y="102" width="6" height="6" rx="1.5" ry="1.5" fill="#161b22" /><rect class="cell" style="animation-delay:320ms" x="460" y="60" width="6" height="6" rx="1.5" ry="1.5" fill="#161b22" /><rect class="cell" style="animation-delay:323ms" x="460" y="67" width="6" height="6" rx="1.5" ry="1.5" fill="#161b22" /><rect class="cell" style="animation-delay:326ms" x="460" y="74" width="6" height="6" rx="1.5" ry="1.5" fill="#161b22" /><rect class="cell" style="animation-delay:329ms" x="460" y="81" width="6" height="6" rx="1.5" ry="1.5" fill="#161b22" /><rect class="cell active" style="animation-delay:332ms,1790ms" x="460" y="88" width="6" height="6" rx="1.5" ry="1.5" fill="#006d32" /><rect class="cell active" style="animation-delay:335ms,1790ms" x="460" y="95" width="6" height="6" rx="1.5" ry="1.5" fill="#0e4429" /><rect class="cell active" style="animation-delay:338ms,1790ms" x="460" y="102" width="6" height="6" rx="1.5" ry="1.5" fill="#006d32" /><rect class="cell active" style="animation-delay:332ms,1819ms" x="467" y="60" width="6" height="6" rx="1.5" ry="1.5" fill="#39d353" /><rect class="cell active" style="animation-delay:335ms,1819ms" x="467" y="67" width="6" height="6" rx="1.5" ry="1.5" fill="#26a641" /><rect class="cell active" style="animation-delay:338ms,1819ms" x="467" y="74" width="6" height="6" rx="1.5" ry="1.5" fill="#006d32" /><rect class="cell active" style="animation-delay:341ms,1819ms" x="467" y="81" width="6" height="6" rx="1.5" ry="1.5" fill="#39d353" /><rect class="cell active" style="animation-delay:344ms,1819ms" x="467" y="88" width="6" height="6" rx="1.5" ry="1.5" fill="#39d353" /><rect class="cell active" style="animation-delay:347ms,1819ms" x="467" y="95" width="6" height="6" rx="1.5" ry="1.5" fill="#0e4429" /><rect class="cell active" style="animation-delay:350ms,1819ms" x="467" y="102" width="6" height="6" rx="1.5" ry="1.5" fill="#0e4429" /><rect class="cell active" style="animation-delay:344ms,1848ms" x="474" y="60" width="6" height="6" rx="1.5" ry="1.5" fill="#26a641" /><rect class="cell active" style="animation-delay:347ms,1848ms" x="474" y="67" width="6" height="6" rx="1.5" ry="1.5" fill="#0e4429" /><rect class="cell active" style="animation-delay:350ms,1848ms" x="474" y="74" width="6" height="6" rx="1.5" ry="1.5" fill="#0e4429" /><rect class="cell active" style="animation-delay:353ms,1848ms" x="474" y="81" width="6" height="6" rx="1.5" ry="1.5" fill="#0e4429" /><rect class="cell active" style="animation-delay:356ms,1848ms" x="474" y="88" width="6" height="6" rx="1.5" ry="1.5" fill="#0e4429" /><rect class="cell active" style="animation-delay:359ms,1848ms" x="474" y="95" width="6" height="6" rx="1.5" ry="1.5" fill="#0e4429" /><rect class="cell active" style="animation-delay:362ms,1848ms" x="474" y="102" width="6" height="6" rx="1.5" ry="1.5" fill="#0e4429" /><rect class="cell active" style="animation-delay:356ms,1877ms" x="481" y="60" width="6" height="6" rx="1.5" ry="1.5" fill="#0e4429" /><rect class="cell active" style="animation-delay:359ms,1877ms" x="481" y="67" width="6" height="6" rx="1.5" ry="1.5" fill="#0e4429" /><rect class="cell active" style="animation-delay:362ms,1877ms" x="481" y="74" width="6" height="6" rx="1.5" ry="1.5" fill="#0e4429" /><rect class="cell active" style="animation-delay:365ms,1877ms" x="481" y="81" width="6" height="6" rx="1.5" ry="1.5" fill="#006d32" /><rect class="cell active" style="animation-delay:368ms,1877ms" x="481" y="88" width="6" height="6" rx="1.5" ry="1.5" fill="#006d32" /><rect class="cell active" style="animation-delay:371ms,1877ms" x="481" y="95" width="6" height="6" rx="1.5" ry="1.5" fill="#006d32" /><rect class="cell active" style="animation-delay:374ms,1877ms" x="481" y="102" width="6" height="6" rx="1.5" ry="1.5" fill="#0e4429" /><rect class="cell active" style="animation-delay:368ms,1906ms" x="488" y="60" width="6" height="6" rx="1.5" ry="1.5" fill="#006d32" /><rect class="cell active" style="animation-delay:371ms,1906ms" x="488" y="67" width="6" height="6" rx="1.5" ry="1.5" fill="#0e4429" /><rect class="cell active" style="animation-delay:374ms,1906ms" x="488" y="74" width="6" height="6" rx="1.5" ry="1.5" fill="#0e4429" /><rect class="cell active" style="animation-delay:377ms,1906ms" x="488" y="81" width="6" height="6" rx="1.5" ry="1.5" fill="#0e4429" /><rect class="cell" style="animation-delay:380ms" x="488" y="88" width="6" height="6" rx="1.5" ry="1.5" fill="#161b22" /><rect class="cell active" style="animation-delay:383ms,1906ms" x="488" y="95" width="6" height="6" rx="1.5" ry="1.5" fill="#0e4429" /><rect class="cell active" style="animation-delay:386ms,1906ms" x="488" y="102" width="6" height="6" rx="1.5" ry="1.5" fill="#006d32" /><rect class="cell active" style="animation-delay:380ms,1935ms" x="495" y="60" width="6" height="6" rx="1.5" ry="1.5" fill="#0e4429" /><rect class="cell active" style="animation-delay:383ms,1935ms" x="495" y="67" width="6" height="6" rx="1.5" ry="1.5" fill="#0e4429" /><rect class="cell active" style="animation-delay:386ms,1935ms" x="495" y="74" width="6" height="6" rx="1.5" ry="1.5" fill="#0e4429" /><rect class="cell active" style="animation-delay:389ms,1935ms" x="495" y="81" width="6" height="6" rx="1.5" ry="1.5" fill="#0e4429" /><rect class="cell" style="animation-delay:392ms" x="495" y="88" width="6" height="6" rx="1.5" ry="1.5" fill="#161b22" /><rect class="cell" style="animation-delay:395ms" x="495" y="95" width="6" height="6" rx="1.5" ry="1.5" fill="#161b22" /><rect class="cell" style="animation-delay:398ms" x="495" y="102" width="6" height="6" rx="1.5" ry="1.5" fill="#161b22" /><rect class="cell active" style="animation-delay:392ms,1964ms" x="502" y="60" width="6" height="6" rx="1.5" ry="1.5" fill="#0e4429" /><rect class="cell active" style="animation-delay:395ms,1964ms" x="502" y="67" width="6" height="6" rx="1.5" ry="1.5" fill="#0e4429" /><rect class="cell active" style="animation-delay:398ms,1964ms" x="502" y="74" width="6" height="6" rx="1.5" ry="1.5" fill="#0e4429" /><rect class="cell active" style="animation-delay:401ms,1964ms" x="502" y="81" width="6" height="6" rx="1.5" ry="1.5" fill="#0e4429" /><rect class="cell active" style="animation-delay:404ms,1964ms" x="502" y="88" width="6" height="6" rx="1.5" ry="1.5" fill="#0e4429" /><rect class="cell" style="animation-delay:407ms" x="502" y="95" width="6" height="6" rx="1.5" ry="1.5" fill="#161b22" /><rect class="cell" style="animation-delay:410ms" x="502" y="102" width="6" height="6" rx="1.5" ry="1.5" fill="#161b22" /><rect class="cell" style="animation-delay:404ms" x="509" y="60" width="6" height="6" rx="1.5" ry="1.5" fill="#161b22" /><rect class="cell" style="animation-delay:407ms" x="509" y="67" width="6" height="6" rx="1.5" ry="1.5" fill="#161b22" /><rect class="cell" style="animation-delay:410ms" x="509" y="74" width="6" height="6" rx="1.5" ry="1.5" fill="#161b22" /><rect class="cell active" style="animation-delay:413ms,1993ms" x="509" y="81" width="6" height="6" rx="1.5" ry="1.5" fill="#006d32" /><rect class="cell active" style="animation-delay:416ms,1993ms" x="509" y="88" width="6" height="6" rx="1.5" ry="1.5" fill="#006d32" /><rect class="cell" style="animation-delay:419ms" x="509" y="95" width="6" height="6" rx="1.5" ry="1.5" fill="#161b22" /><rect class="cell" style="animation-delay:422ms" x="509" y="102" width="6" height="6" rx="1.5" ry="1.5" fill="#161b22" /><rect class="cell" style="animation-delay:416ms" x="516" y="60" width="6" height="6" rx="1.5" ry="1.5" fill="#161b22" /><rect class="cell" style="animation-delay:419ms" x="516" y="67" width="6" height="6" rx="1.5" ry="1.5" fill="#161b22" /><rect class="cell active" style="animation-delay:422ms,2022ms" x="516" y="74" width="6" height="6" rx="1.5" ry="1.5" fill="#0e4429" /><rect class="cell active" style="animation-delay:425ms,2022ms" x="516" y="81" width="6" height="6" rx="1.5" ry="1.5" fill="#0e4429" /><rect class="cell active" style="animation-delay:428ms,2022ms" x="516" y="88" width="6" height="6" rx="1.5" ry="1.5" fill="#0e4429" /><rect class="cell active" style="animation-delay:431ms,2022ms" x="516" y="95" width="6" height="6" rx="1.5" ry="1.5" fill="#0e4429" /><rect class="cell" style="animation-delay:434ms" x="516" y="102" width="6" height="6" rx="1.5" ry="1.5" fill="#161b22" /><rect class="cell active" style="animation-delay:428ms,2051ms" x="523" y="60" width="6" height="6" rx="1.5" ry="1.5" fill="#0e4429" /><rect class="cell active" style="animation-delay:431ms,2051ms" x="523" y="67" width="6" height="6" rx="1.5" ry="1.5" fill="#0e4429" /><rect class="cell" style="animation-delay:434ms" x="523" y="74" width="6" height="6" rx="1.5" ry="1.5" fill="#161b22" /><rect class="cell active" style="animation-delay:437ms,2051ms" x="523" y="81" width="6" height="6" rx="1.5" ry="1.5" fill="#0e4429" /><rect class="cell active" style="animation-delay:440ms,2051ms" x="523" y="88" width="6" height="6" rx="1.5" ry="1.5" fill="#0e4429" /><rect class="cell" style="animation-delay:443ms" x="523" y="95" width="6" height="6" rx="1.5" ry="1.5" fill="#161b22" /><rect class="cell" style="animation-delay:446ms" x="523" y="102" width="6" height="6" rx="1.5" ry="1.5" fill="#161b22" /><rect class="cell active" style="animation-delay:440ms,2080ms" x="530" y="60" width="6" height="6" rx="1.5" ry="1.5" fill="#0e4429" /><rect class="cell" style="animation-delay:443ms" x="530" y="67" width="6" height="6" rx="1.5" ry="1.5" fill="#161b22" /><rect class="cell active" style="animation-delay:446ms,2080ms" x="530" y="74" width="6" height="6" rx="1.5" ry="1.5" fill="#0e4429" /><rect class="cell" style="animation-delay:449ms" x="530" y="81" width="6" height="6" rx="1.5" ry="1.5" fill="#161b22" /><rect class="cell active" style="animation-delay:452ms,2080ms" x="530" y="88" width="6" height="6" rx="1.5" ry="1.5" fill="#0e4429" /><rect class="cell active" style="animation-delay:455ms,2080ms" x="530" y="95" width="6" height="6" rx="1.5" ry="1.5" fill="#0e4429" /><rect class="cell" style="animation-delay:458ms" x="530" y="102" width="6" height="6" rx="1.5" ry="1.5" fill="#161b22" /><rect class="cell" style="animation-delay:452ms" x="537" y="60" width="6" height="6" rx="1.5" ry="1.5" fill="#161b22" /><rect class="cell" style="animation-delay:455ms" x="537" y="67" width="6" height="6" rx="1.5" ry="1.5" fill="#161b22" /><rect class="cell" style="animation-delay:458ms" x="537" y="74" width="6" height="6" rx="1.5" ry="1.5" fill="#161b22" /><rect class="cell" style="animation-delay:461ms" x="537" y="81" width="6" height="6" rx="1.5" ry="1.5" fill="#161b22" /><rect class="cell active" style="animation-delay:464ms,2109ms" x="537" y="88" width="6" height="6" rx="1.5" ry="1.5" fill="#0e4429" /><rect class="cell" style="animation-delay:467ms" x="537" y="95" width="6" height="6" rx="1.5" ry="1.5" fill="#161b22" /><rect class="cell" style="animation-delay:470ms" x="537" y="102" width="6" height="6" rx="1.5" ry="1.5" fill="#161b22" /><rect class="cell" style="animation-delay:464ms" x="544" y="60" width="6" height="6" rx="1.5" ry="1.5" fill="#161b22" /><rect class="cell" style="animation-delay:467ms" x="544" y="67" width="6" height="6" rx="1.5" ry="1.5" fill="#161b22" /><rect class="cell active" style="animation-delay:470ms,2138ms" x="544" y="74" width="6" height="6" rx="1.5" ry="1.5" fill="#0e4429" /><rect class="cell" style="animation-delay:473ms" x="544" y="81" width="6" height="6" rx="1.5" ry="1.5" fill="#161b22" /><rect class="cell" style="animation-delay:476ms" x="544" y="88" width="6" height="6" rx="1.5" ry="1.5" fill="#161b22" /><rect class="cell active" style="animation-delay:479ms,2138ms" x="544" y="95" width="6" height="6" rx="1.5" ry="1.5" fill="#0e4429" /><rect class="cell active" style="animation-delay:482ms,2138ms" x="544" y="102" width="6" height="6" rx="1.5" ry="1.5" fill="#0e4429" /><rect class="cell" style="animation-delay:476ms" x="551" y="60" width="6" height="6" rx="1.5" ry="1.5" fill="#161b22" /><rect class="cell" style="animation-delay:479ms" x="551" y="67" width="6" height="6" rx="1.5" ry="1.5" fill="#161b22" /><rect class="cell" style="animation-delay:482ms" x="551" y="74" width="6" height="6" rx="1.5" ry="1.5" fill="#161b22" /><rect class="cell" style="animation-delay:485ms" x="551" y="81" width="6" height="6" rx="1.5" ry="1.5" fill="#161b22" /><rect class="cell active" style="animation-delay:488ms,2167ms" x="551" y="88" width="6" height="6" rx="1.5" ry="1.5" fill="#0e4429" /><rect class="cell active" style="animation-delay:491ms,2167ms" x="551" y="95" width="6" height="6" rx="1.5" ry="1.5" fill="#0e4429" /><rect class="cell" style="animation-delay:494ms" x="551" y="102" width="6" height="6" rx="1.5" ry="1.5" fill="#161b22" /><rect class="cell" style="animation-delay:488ms" x="558" y="60" width="6" height="6" rx="1.5" ry="1.5" fill="#161b22" /><rect class="cell" style="animation-delay:491ms" x="558" y="67" width="6" height="6" rx="1.5" ry="1.5" fill="#161b22" /><rect class="cell" style="animation-delay:494ms" x="558" y="74" width="6" height="6" rx="1.5" ry="1.5" fill="#161b22" /><rect class="cell active" style="animation-delay:497ms,2196ms" x="558" y="81" width="6" height="6" rx="1.5" ry="1.5" fill="#0e4429" /><rect class="cell" style="animation-delay:500ms" x="558" y="88" width="6" height="6" rx="1.5" ry="1.5" fill="#161b22" /><rect class="cell" style="animation-delay:503ms" x="558" y="95" width="6" height="6" rx="1.5" ry="1.5" fill="#161b22" /><rect class="cell" style="animation-delay:506ms" x="558" y="102" width="6" height="6" rx="1.5" ry="1.5" fill="#161b22" /><rect class="cell" style="animation-delay:500ms" x="565" y="60" width="6" height="6" rx="1.5" ry="1.5" fill="#161b22" /><rect class="cell active" style="animation-delay:503ms,2225ms" x="565" y="67" width="6" height="6" rx="1.5" ry="1.5" fill="#0e4429" /><rect class="cell" style="animation-delay:506ms" x="565" y="74" width="6" height="6" rx="1.5" ry="1.5" fill="#161b22" /><rect class="cell active" style="animation-delay:509ms,2225ms" x="565" y="81" width="6" height="6" rx="1.5" ry="1.5" fill="#0e4429" /><rect class="cell" style="animation-delay:512ms" x="565" y="88" width="6" height="6" rx="1.5" ry="1.5" fill="#161b22" /><rect class="cell" style="animation-delay:515ms" x="565" y="95" width="6" height="6" rx="1.5" ry="1.5" fill="#161b22" /><rect class="cell" style="animation-delay:518ms" x="565" y="102" width="6" height="6" rx="1.5" ry="1.5" fill="#161b22" /><rect class="cell" style="animation-delay:512ms" x="572" y="60" width="6" height="6" rx="1.5" ry="1.5" fill="#161b22" /><rect class="cell" style="animation-delay:515ms" x="572" y="67" width="6" height="6" rx="1.5" ry="1.5" fill="#161b22" /><rect class="cell active" style="animation-delay:518ms,2254ms" x="572" y="74" width="6" height="6" rx="1.5" ry="1.5" fill="#0e4429" /><rect class="cell" style="animation-delay:521ms" x="572" y="81" width="6" height="6" rx="1.5" ry="1.5" fill="#161b22" /><rect class="cell" style="animation-delay:524ms" x="572" y="88" width="6" height="6" rx="1.5" ry="1.5" fill="#161b22" /><rect class="cell" style="animation-delay:527ms" x="572" y="95" width="6" height="6" rx="1.5" ry="1.5" fill="#161b22" /><rect class="cell active" style="animation-delay:530ms,2254ms" x="572" y="102" width="6" height="6" rx="1.5" ry="1.5" fill="#0e4429" /><rect class="cell" style="animation-delay:524ms" x="579" y="60" width="6" height="6" rx="1.5" ry="1.5" fill="#161b22" /><rect class="cell active" style="animation-delay:527ms,2283ms" x="579" y="67" width="6" height="6" rx="1.5" ry="1.5" fill="#0e4429" /><rect class="cell" style="animation-delay:530ms" x="579" y="74" width="6" height="6" rx="1.5" ry="1.5" fill="#161b22" /><rect class="cell" style="animation-delay:533ms" x="579" y="81" width="6" height="6" rx="1.5" ry="1.5" fill="#161b22" /><rect class="cell" style="animation-delay:536ms" x="579" y="88" width="6" height="6" rx="1.5" ry="1.5" fill="#161b22" /><rect class="cell" style="animation-delay:539ms" x="579" y="95" width="6" height="6" rx="1.5" ry="1.5" fill="#161b22" /><rect class="cell" style="animation-delay:542ms" x="579" y="102" width="6" height="6" rx="1.5" ry="1.5" fill="#161b22" /><rect class="cell active" style="animation-delay:536ms,2312ms" x="586" y="60" width="6" height="6" rx="1.5" ry="1.5" fill="#0e4429" /><rect class="cell active" style="animation-delay:539ms,2312ms" x="586" y="67" width="6" height="6" rx="1.5" ry="1.5" fill="#0e4429" /><rect class="cell" style="animation-delay:542ms" x="586" y="74" width="6" height="6" rx="1.5" ry="1.5" fill="#161b22" /><rect class="cell" style="animation-delay:545ms" x="586" y="81" width="6" height="6" rx="1.5" ry="1.5" fill="#161b22" /><rect class="cell active" style="animation-delay:548ms,2312ms" x="586" y="88" width="6" height="6" rx="1.5" ry="1.5" fill="#0e4429" /><rect class="cell" style="animation-delay:551ms" x="586" y="95" width="6" height="6" rx="1.5" ry="1.5" fill="#161b22" /><rect class="cell" style="animation-delay:554ms" x="586" y="102" width="6" height="6" rx="1.5" ry="1.5" fill="#161b22" /><rect class="cell" style="animation-delay:548ms" x="593" y="60" width="6" height="6" rx="1.5" ry="1.5" fill="#161b22" /><rect class="cell" style="animation-delay:551ms" x="593" y="67" width="6" height="6" rx="1.5" ry="1.5" fill="#161b22" /><rect class="cell" style="animation-delay:554ms" x="593" y="74" width="6" height="6" rx="1.5" ry="1.5" fill="#161b22" /><rect class="cell" style="animation-delay:557ms" x="593" y="81" width="6" height="6" rx="1.5" ry="1.5" fill="#161b22" /><rect class="cell" style="animation-delay:560ms" x="593" y="88" width="6" height="6" rx="1.5" ry="1.5" fill="#161b22" /><rect class="cell active" style="animation-delay:563ms,2341ms" x="593" y="95" width="6" height="6" rx="1.5" ry="1.5" fill="#0e4429" /><rect class="cell" style="animation-delay:566ms" x="593" y="102" width="6" height="6" rx="1.5" ry="1.5" fill="#161b22" /><rect class="cell" style="animation-delay:560ms" x="600" y="60" width="6" height="6" rx="1.5" ry="1.5" fill="#161b22" /><rect class="cell" style="animation-delay:563ms" x="600" y="67" width="6" height="6" rx="1.5" ry="1.5" fill="#161b22" /><rect class="cell" style="animation-delay:566ms" x="600" y="74" width="6" height="6" rx="1.5" ry="1.5" fill="#161b22" /><rect class="cell" style="animation-delay:569ms" x="600" y="81" width="6" height="6" rx="1.5" ry="1.5" fill="#161b22" /><rect class="cell" style="animation-delay:572ms" x="600" y="88" width="6" height="6" rx="1.5" ry="1.5" fill="#161b22" /><rect class="cell active" style="animation-delay:575ms,2370ms" x="600" y="95" width="6" height="6" rx="1.5" ry="1.5" fill="#0e4429" /><rect class="cell" style="animation-delay:578ms" x="600" y="102" width="6" height="6" rx="1.5" ry="1.5" fill="#161b22" /><rect class="cell" style="animation-delay:572ms" x="607" y="60" width="6" height="6" rx="1.5" ry="1.5" fill="#161b22" /><rect class="cell" style="animation-delay:575ms" x="607" y="67" width="6" height="6" rx="1.5" ry="1.5" fill="#161b22" /><rect class="cell" style="animation-delay:578ms" x="607" y="74" width="6" height="6" rx="1.5" ry="1.5" fill="#161b22" /><rect class="cell" style="animation-delay:581ms" x="607" y="81" width="6" height="6" rx="1.5" ry="1.5" fill="#161b22" /><rect class="cell active" style="animation-delay:584ms,2399ms" x="607" y="88" width="6" height="6" rx="1.5" ry="1.5" fill="#0e4429" /><rect class="cell" style="animation-delay:587ms" x="607" y="95" width="6" height="6" rx="1.5" ry="1.5" fill="#161b22" /><rect class="cell" style="animation-delay:590ms" x="607" y="102" width="6" height="6" rx="1.5" ry="1.5" fill="#161b22" /><rect class="cell" style="animation-delay:584ms" x="614" y="60" width="6" height="6" rx="1.5" ry="1.5" fill="#161b22" /><rect class="cell" style="animation-delay:587ms" x="614" y="67" width="6" height="6" rx="1.5" ry="1.5" fill="#161b22" /><rect class="cell active" style="animation-delay:590ms,2428ms" x="614" y="74" width="6" height="6" rx="1.5" ry="1.5" fill="#0e4429" /><rect class="cell" style="animation-delay:593ms" x="614" y="81" width="6" height="6" rx="1.5" ry="1.5" fill="#161b22" /><rect class="cell" style="animation-delay:596ms" x="614" y="88" width="6" height="6" rx="1.5" ry="1.5" fill="#161b22" /><rect class="cell" style="animation-delay:599ms" x="614" y="95" width="6" height="6" rx="1.5" ry="1.5" fill="#161b22" /><rect class="cell" style="animation-delay:602ms" x="614" y="102" width="6" height="6" rx="1.5" ry="1.5" fill="#161b22" /><rect class="cell" style="animation-delay:596ms" x="621" y="60" width="6" height="6" rx="1.5" ry="1.5" fill="#161b22" /><rect class="cell" style="animation-delay:599ms" x="621" y="67" width="6" height="6" rx="1.5" ry="1.5" fill="#161b22" /><rect class="cell active" style="animation-delay:602ms,2457ms" x="621" y="74" width="6" height="6" rx="1.5" ry="1.5" fill="#0e4429" /><rect class="cell active" style="animation-delay:605ms,2457ms" x="621" y="81" width="6" height="6" rx="1.5" ry="1.5" fill="#0e4429" /><rect class="cell" style="animation-delay:608ms" x="621" y="88" width="6" height="6" rx="1.5" ry="1.5" fill="#161b22" /><rect class="cell active" style="animation-delay:611ms,2457ms" x="621" y="95" width="6" height="6" rx="1.5" ry="1.5" fill="#0e4429" /><rect class="cell" style="animation-delay:614ms" x="621" y="102" width="6" height="6" rx="1.5" ry="1.5" fill="#161b22" /><rect class="cell" style="animation-delay:608ms" x="628" y="60" width="6" height="6" rx="1.5" ry="1.5" fill="#161b22" /><rect class="cell" style="animation-delay:611ms" x="628" y="67" width="6" height="6" rx="1.5" ry="1.5" fill="#161b22" /><rect class="cell active" style="animation-delay:614ms,2486ms" x="628" y="74" width="6" height="6" rx="1.5" ry="1.5" fill="#0e4429" /><rect class="cell active" style="animation-delay:617ms,2486ms" x="628" y="81" width="6" height="6" rx="1.5" ry="1.5" fill="#0e4429" /><rect class="cell active" style="animation-delay:620ms,2486ms" x="628" y="88" width="6" height="6" rx="1.5" ry="1.5" fill="#0e4429" /><rect class="cell" style="animation-delay:623ms" x="628" y="95" width="6" height="6" rx="1.5" ry="1.5" fill="#161b22" /><rect class="cell active" style="animation-delay:626ms,2486ms" x="628" y="102" width="6" height="6" rx="1.5" ry="1.5" fill="#0e4429" /><rect class="cell" style="animation-delay:620ms" x="635" y="60" width="6" height="6" rx="1.5" ry="1.5" fill="#161b22" /><rect class="cell active" style="animation-delay:623ms,2515ms" x="635" y="67" width="6" height="6" rx="1.5" ry="1.5" fill="#0e4429" /><rect class="cell active" style="animation-delay:626ms,2515ms" x="635" y="74" width="6" height="6" rx="1.5" ry="1.5" fill="#0e4429" /><rect class="cell" style="animation-delay:629ms" x="635" y="81" width="6" height="6" rx="1.5" ry="1.5" fill="#161b22" /><rect class="cell" style="animation-delay:632ms" x="635" y="88" width="6" height="6" rx="1.5" ry="1.5" fill="#161b22" /><rect class="cell active" style="animation-delay:635ms,2515ms" x="635" y="95" width="6" height="6" rx="1.5" ry="1.5" fill="#0e4429" /><rect class="cell" style="animation-delay:638ms" x="635" y="102" width="6" height="6" rx="1.5" ry="1.5" fill="#161b22" /><rect class="cell" style="animation-delay:632ms" x="642" y="60" width="6" height="6" rx="1.5" ry="1.5" fill="#161b22" /><rect class="cell active" style="animation-delay:635ms,2544ms" x="642" y="67" width="6" height="6" rx="1.5" ry="1.5" fill="#0e4429" /><rect class="cell" style="animation-delay:638ms" x="642" y="74" width="6" height="6" rx="1.5" ry="1.5" fill="#161b22" /><rect class="cell" style="animation-delay:641ms" x="642" y="81" width="6" height="6" rx="1.5" ry="1.5" fill="#161b22" /><rect class="cell" style="animation-delay:644ms" x="642" y="88" width="6" height="6" rx="1.5" ry="1.5" fill="#161b22" /><rect class="cell active" style="animation-delay:647ms,2544ms" x="642" y="95" width="6" height="6" rx="1.5" ry="1.5" fill="#0e4429" /><rect class="cell" style="animation-delay:650ms" x="642" y="102" width="6" height="6" rx="1.5" ry="1.5" fill="#161b22" /><rect class="cell" style="animation-delay:644ms" x="649" y="60" width="6" height="6" rx="1.5" ry="1.5" fill="#161b22" /><rect class="cell" style="animation-delay:647ms" x="649" y="67" width="6" height="6" rx="1.5" ry="1.5" fill="#161b22" /><rect class="cell active" style="animation-delay:650ms,2573ms" x="649" y="74" width="6" height="6" rx="1.5" ry="1.5" fill="#0e4429" /><rect class="cell active" style="animation-delay:653ms,2573ms" x="649" y="81" width="6" height="6" rx="1.5" ry="1.5" fill="#0e4429" /><rect class="cell" style="animation-delay:656ms" x="649" y="88" width="6" height="6" rx="1.5" ry="1.5" fill="#161b22" /><rect class="cell active" style="animation-delay:659ms,2573ms" x="649" y="95" width="6" height="6" rx="1.5" ry="1.5" fill="#0e4429" /><rect class="cell" style="animation-delay:662ms" x="649" y="102" width="6" height="6" rx="1.5" ry="1.5" fill="#161b22" /><rect class="cell" style="animation-delay:656ms" x="656" y="60" width="6" height="6" rx="1.5" ry="1.5" fill="#161b22" /><rect class="cell" style="animation-delay:659ms" x="656" y="67" width="6" height="6" rx="1.5" ry="1.5" fill="#161b22" /><rect class="cell" style="animation-delay:662ms" x="656" y="74" width="6" height="6" rx="1.5" ry="1.5" fill="#161b22" /><rect class="cell" style="animation-delay:665ms" x="656" y="81" width="6" height="6" rx="1.5" ry="1.5" fill="#161b22" /><rect class="cell active" style="animation-delay:668ms,2602ms" x="656" y="88" width="6" height="6" rx="1.5" ry="1.5" fill="#0e4429" /><rect class="cell active" style="animation-delay:671ms,2602ms" x="656" y="95" width="6" height="6" rx="1.5" ry="1.5" fill="#0e4429" /><rect class="cell" style="animation-delay:674ms" x="656" y="102" width="6" height="6" rx="1.5" ry="1.5" fill="#161b22" /><rect class="cell" style="animation-delay:668ms" x="663" y="60" width="6" height="6" rx="1.5" ry="1.5" fill="#161b22" /><rect class="cell" style="animation-delay:671ms" x="663" y="67" width="6" height="6" rx="1.5" ry="1.5" fill="#161b22" /><rect class="cell active" style="animation-delay:674ms,2631ms" x="663" y="74" width="6" height="6" rx="1.5" ry="1.5" fill="#0e4429" /><rect class="cell" style="animation-delay:677ms" x="663" y="81" width="6" height="6" rx="1.5" ry="1.5" fill="#161b22" /><rect class="cell" style="animation-delay:680ms" x="663" y="88" width="6" height="6" rx="1.5" ry="1.5" fill="#161b22" /><rect class="cell active" style="animation-delay:683ms,2631ms" x="663" y="95" width="6" height="6" rx="1.5" ry="1.5" fill="#0e4429" /><rect class="cell" style="animation-delay:686ms" x="663" y="102" width="6" height="6" rx="1.5" ry="1.5" fill="#161b22" /><rect class="cell" style="animation-delay:680ms" x="670" y="60" width="6" height="6" rx="1.5" ry="1.5" fill="#161b22" /><rect class="cell" style="animation-delay:683ms" x="670" y="67" width="6" height="6" rx="1.5" ry="1.5" fill="#161b22" /><rect class="cell active" style="animation-delay:686ms,2660ms" x="670" y="74" width="6" height="6" rx="1.5" ry="1.5" fill="#0e4429" /><rect class="cell" style="animation-delay:689ms" x="670" y="81" width="6" height="6" rx="1.5" ry="1.5" fill="#161b22" /><rect class="cell active" style="animation-delay:692ms,2660ms" x="670" y="88" width="6" height="6" rx="1.5" ry="1.5" fill="#0e4429" /><rect class="cell active" style="animation-delay:695ms,2660ms" x="670" y="95" width="6" height="6" rx="1.5" ry="1.5" fill="#0e4429" /><rect class="cell" style="animation-delay:698ms" x="670" y="102" width="6" height="6" rx="1.5" ry="1.5" fill="#161b22" /><rect class="cell" style="animation-delay:692ms" x="677" y="60" width="6" height="6" rx="1.5" ry="1.5" fill="#161b22" /><rect class="cell active" style="animation-delay:695ms,2689ms" x="677" y="67" width="6" height="6" rx="1.5" ry="1.5" fill="#0e4429" /><rect class="cell active" style="animation-delay:698ms,2689ms" x="677" y="74" width="6" height="6" rx="1.5" ry="1.5" fill="#0e4429" /><rect class="cell" style="animation-delay:701ms" x="677" y="81" width="6" height="6" rx="1.5" ry="1.5" fill="#161b22" /><rect class="cell" style="animation-delay:704ms" x="677" y="88" width="6" height="6" rx="1.5" ry="1.5" fill="#161b22" /><rect class="cell" style="animation-delay:707ms" x="677" y="95" width="6" height="6" rx="1.5" ry="1.5" fill="#161b22" /><rect class="cell" style="animation-delay:710ms" x="677" y="102" width="6" height="6" rx="1.5" ry="1.5" fill="#161b22" /><rect class="cell" style="animation-delay:704ms" x="684" y="60" width="6" height="6" rx="1.5" ry="1.5" fill="#161b22" /><rect class="cell" style="animation-delay:707ms" x="684" y="67" width="6" height="6" rx="1.5" ry="1.5" fill="#161b22" /><rect class="cell" style="animation-delay:710ms" x="684" y="74" width="6" height="6" rx="1.5" ry="1.5" fill="#161b22" /><rect class="cell" style="animation-delay:713ms" x="684" y="81" width="6" height="6" rx="1.5" ry="1.5" fill="#161b22" /><rect class="cell" style="animation-delay:716ms" x="684" y="88" width="6" height="6" rx="1.5" ry="1.5" fill="#161b22" /><rect class="cell" style="animation-delay:719ms" x="684" y="95" width="6" height="6" rx="1.5" ry="1.5" fill="#161b22" /><rect class="cell" style="animation-delay:722ms" x="684" y="102" width="6" height="6" rx="1.5" ry="1.5" fill="#161b22" /><rect class="cell" style="animation-delay:716ms" x="691" y="60" width="6" height="6" rx="1.5" ry="1.5" fill="#161b22" /><rect class="cell active" style="animation-delay:719ms,2747ms" x="691" y="67" width="6" height="6" rx="1.5" ry="1.5" fill="#0e4429" /><rect class="cell active" style="animation-delay:722ms,2747ms" x="691" y="74" width="6" height="6" rx="1.5" ry="1.5" fill="#0e4429" /><rect class="cell active" style="animation-delay:725ms,2747ms" x="691" y="81" width="6" height="6" rx="1.5" ry="1.5" fill="#0e4429" /><rect class="cell" style="animation-delay:728ms" x="691" y="88" width="6" height="6" rx="1.5" ry="1.5" fill="#161b22" /><rect class="cell" style="animation-delay:731ms" x="691" y="95" width="6" height="6" rx="1.5" ry="1.5" fill="#161b22" /><rect class="cell" style="animation-delay:734ms" x="691" y="102" width="6" height="6" rx="1.5" ry="1.5" fill="#161b22" /><rect class="cell" style="animation-delay:728ms" x="698" y="60" width="6" height="6" rx="1.5" ry="1.5" fill="#161b22" /><rect class="cell active" style="animation-delay:731ms,2776ms" x="698" y="67" width="6" height="6" rx="1.5" ry="1.5" fill="#0e4429" /><rect class="cell" style="animation-delay:734ms" x="698" y="74" width="6" height="6" rx="1.5" ry="1.5" fill="#161b22" /><rect class="cell" style="animation-delay:737ms" x="698" y="81" width="6" height="6" rx="1.5" ry="1.5" fill="#161b22" /><rect class="cell" style="animation-delay:740ms" x="698" y="88" width="6" height="6" rx="1.5" ry="1.5" fill="#161b22" /><rect class="cell" style="animation-delay:743ms" x="698" y="95" width="6" height="6" rx="1.5" ry="1.5" fill="#161b22" /><rect class="cell" style="animation-delay:746ms" x="698" y="102" width="6" height="6" rx="1.5" ry="1.5" fill="#161b22" /><rect class="cell" style="animation-delay:740ms" x="705" y="60" width="6" height="6" rx="1.5" ry="1.5" fill="#161b22" /><rect class="cell" style="animation-delay:743ms" x="705" y="67" width="6" height="6" rx="1.5" ry="1.5" fill="#161b22" /><rect class="cell" style="animation-delay:746ms" x="705" y="74" width="6" height="6" rx="1.5" ry="1.5" fill="#161b22" /><rect class="cell" style="animation-delay:749ms" x="705" y="81" width="6" height="6" rx="1.5" ry="1.5" fill="#161b22" /><rect class="cell active" style="animation-delay:752ms,2805ms" x="705" y="88" width="6" height="6" rx="1.5" ry="1.5" fill="#0e4429" /><rect class="cell active" style="animation-delay:755ms,2805ms" x="705" y="95" width="6" height="6" rx="1.5" ry="1.5" fill="#0e4429" /><rect class="cell" style="animation-delay:758ms" x="705" y="102" width="6" height="6" rx="1.5" ry="1.5" fill="#161b22" /><rect class="cell" style="animation-delay:752ms" x="712" y="60" width="6" height="6" rx="1.5" ry="1.5" fill="#161b22" /><rect class="cell" style="animation-delay:755ms" x="712" y="67" width="6" height="6" rx="1.5" ry="1.5" fill="#161b22" /><rect class="cell active" style="animation-delay:758ms,2834ms" x="712" y="74" width="6" height="6" rx="1.5" ry="1.5" fill="#0e4429" /><rect class="cell active" style="animation-delay:761ms,2834ms" x="712" y="81" width="6" height="6" rx="1.5" ry="1.5" fill="#26a641" /><rect class="cell active" style="animation-delay:764ms,2834ms" x="712" y="88" width="6" height="6" rx="1.5" ry="1.5" fill="#0e4429" /><rect class="cell" style="animation-delay:767ms" x="712" y="95" width="6" height="6" rx="1.5" ry="1.5" fill="#161b22" /><rect class="cell" style="animation-delay:770ms" x="712" y="102" width="6" height="6" rx="1.5" ry="1.5" fill="#161b22" /><rect class="cell" style="animation-delay:764ms" x="719" y="60" width="6" height="6" rx="1.5" ry="1.5" fill="#161b22" /><rect class="cell" style="animation-delay:767ms" x="719" y="67" width="6" height="6" rx="1.5" ry="1.5" fill="#161b22" /><rect class="cell active" style="animation-delay:770ms,2863ms" x="719" y="74" width="6" height="6" rx="1.5" ry="1.5" fill="#26a641" /><rect class="cell active" style="animation-delay:773ms,2863ms" x="719" y="81" width="6" height="6" rx="1.5" ry="1.5" fill="#26a641" /><rect class="cell active" style="animation-delay:776ms,2863ms" x="719" y="88" width="6" height="6" rx="1.5" ry="1.5" fill="#26a641" /><rect class="cell" style="animation-delay:779ms" x="719" y="95" width="6" height="6" rx="1.5" ry="1.5" fill="#161b22" /><rect class="cell" style="animation-delay:782ms" x="719" y="102" width="6" height="6" rx="1.5" ry="1.5" fill="#161b22" /><rect class="cell" style="animation-delay:776ms" x="726" y="60" width="6" height="6" rx="1.5" ry="1.5" fill="#161b22" /><rect class="cell" style="animation-delay:779ms" x="726" y="67" width="6" height="6" rx="1.5" ry="1.5" fill="#161b22" /><rect class="cell" style="animation-delay:782ms" x="726" y="74" width="6" height="6" rx="1.5" ry="1.5" fill="#161b22" /><rect class="cell" style="animation-delay:785ms" x="726" y="81" width="6" height="6" rx="1.5" ry="1.5" fill="#161b22" /><rect class="cell" style="animation-delay:788ms" x="726" y="88" width="6" height="6" rx="1.5" ry="1.5" fill="#161b22" /><rect class="cell active" style="animation-delay:791ms,2892ms" x="726" y="95" width="6" height="6" rx="1.5" ry="1.5" fill="#0e4429" /><rect class="cell active" style="animation-delay:794ms,2892ms" x="726" y="102" width="6" height="6" rx="1.5" ry="1.5" fill="#0e4429" /><rect class="cell" style="animation-delay:788ms" x="733" y="60" width="6" height="6" rx="1.5" ry="1.5" fill="#161b22" /><rect class="cell" style="animation-delay:791ms" x="733" y="67" width="6" height="6" rx="1.5" ry="1.5" fill="#161b22" /><rect class="cell active" style="animation-delay:794ms,2921ms" x="733" y="74" width="6" height="6" rx="1.5" ry="1.5" fill="#0e4429" /><rect class="cell" style="animation-delay:797ms" x="733" y="81" width="6" height="6" rx="1.5" ry="1.5" fill="#161b22" /><rect class="cell" style="animation-delay:800ms" x="733" y="88" width="6" height="6" rx="1.5" ry="1.5" fill="#161b22" /><rect class="cell" style="animation-delay:803ms" x="733" y="95" width="6" height="6" rx="1.5" ry="1.5" fill="#161b22" /><rect class="cell" style="animation-delay:806ms" x="733" y="102" width="6" height="6" rx="1.5" ry="1.5" fill="#161b22" /><rect class="cell active" style="animation-delay:800ms,2950ms" x="740" y="60" width="6" height="6" rx="1.5" ry="1.5" fill="#0e4429" /><rect class="cell" style="animation-delay:803ms" x="740" y="67" width="6" height="6" rx="1.5" ry="1.5" fill="#161b22" /><rect class="cell" style="animation-delay:806ms" x="740" y="74" width="6" height="6" rx="1.5" ry="1.5" fill="#161b22" /><rect class="cell active" style="animation-delay:809ms,2950ms" x="740" y="81" width="6" height="6" rx="1.5" ry="1.5" fill="#0e4429" /><rect class="cell" style="animation-delay:812ms" x="740" y="88" width="6" height="6" rx="1.5" ry="1.5" fill="#161b22" /><rect class="cell active" style="animation-delay:815ms,2950ms" x="740" y="95" width="6" height="6" rx="1.5" ry="1.5" fill="#0e4429" /><rect class="cell active" style="animation-delay:818ms,2950ms" x="740" y="102" width="6" height="6" rx="1.5" ry="1.5" fill="#0e4429" /><rect class="cell" style="animation-delay:812ms" x="747" y="60" width="6" height="6" rx="1.5" ry="1.5" fill="#161b22" /><rect class="cell" style="animation-delay:815ms" x="747" y="67" width="6" height="6" rx="1.5" ry="1.5" fill="#161b22" /><rect class="cell" style="animation-delay:818ms" x="747" y="74" width="6" height="6" rx="1.5" ry="1.5" fill="#161b22" /><rect class="cell" style="animation-delay:821ms" x="747" y="81" width="6" height="6" rx="1.5" ry="1.5" fill="#161b22" /><rect class="cell" style="animation-delay:824ms" x="747" y="88" width="6" height="6" rx="1.5" ry="1.5" fill="#161b22" /><rect class="cell" style="animation-delay:827ms" x="747" y="95" width="6" height="6" rx="1.5" ry="1.5" fill="#161b22" /><rect class="cell" style="animation-delay:830ms" x="747" y="102" width="6" height="6" rx="1.5" ry="1.5" fill="#161b22" />
      <text class="fade-in" style="animation-delay:1000ms" x="390" y="126" font-family="-apple-system, BlinkMacSystemFont, 'Segoe UI', Helvetica, Arial, sans-serif" font-size="11" fill="#8d96a0">1,228 commits / 52w · pushed 2d ago</text>
      <text class="fade-in" style="animation-delay:1100ms" x="390" y="144" font-family="-apple-system, BlinkMacSystemFont, 'Segoe UI', Helvetica, Arial, sans-serif" font-size="11" fill="#e6edf3">• Reviewed PR #448</text>
    <text class="fade-in" style="animation-delay:1100ms" x="786" y="144" font-family="-apple-system, BlinkMacSystemFont, 'Segoe UI', Helvetica, Arial, sans-serif" font-size="10" fill="#8d96a0" text-anchor="end">2d ago</text>
    <text class="fade-in" style="animation-delay:1190ms" x="390" y="160" font-family="-apple-system, BlinkMacSystemFont, 'Segoe UI', Helvetica, Arial, sans-serif" font-size="11" fill="#e6edf3">• Reviewed PR #447</text>
    <text class="fade-in" style="animation-delay:1190ms" x="786" y="160" font-family="-apple-system, BlinkMacSystemFont, 'Segoe UI', Helvetica, Arial, sans-serif" font-size="10" fill="#8d96a0" text-anchor="end">2d ago</text>
    <text class="fade-in" style="animation-delay:1280ms" x="390" y="176" font-family="-apple-system, BlinkMacSystemFont, 'Segoe UI', Helvetica, Arial, sans-serif" font-size="11" fill="#e6edf3">• Reviewed PR #446</text>
    <text class="fade-in" style="animation-delay:1280ms" x="786" y="176" font-family="-apple-system, BlinkMacSystemFont, 'Segoe UI', Helvetica, Arial, sans-serif" font-size="10" fill="#8d96a0" text-anchor="end">2d ago</text>
    </g>
  </a>
  </g>
</svg>
