<svg xmlns="http://www.w3.org/2000/svg" width="785" height="159" viewBox="0 0 785 159" role="img" aria-label="Contribution heatmap">
  <rect width="785" height="159" fill="#ffffff" />
  <text x="8" y="20" font-family="-apple-system, BlinkMacSystemFont, 'Segoe UI', Helvetica, Arial, sans-serif" font-size="13" font-weight="600" fill="#1f2328">17,965 contributions in the last year</text>
  <text x="72" y="26" font-family="-apple-system, BlinkMacSystemFont, 'Segoe UI', Helvetica, Arial, sans-serif" font-size="10" fill="#59636e">Jun</text>
  <text x="142" y="26" font-family="-apple-system, BlinkMacSystemFont, 'Segoe UI', Helvetica, Arial, sans-serif" font-size="10" fill="#59636e">Jul</text>
  <text x="198" y="26" font-family="-apple-system, BlinkMacSystemFont, 'Segoe UI', Helvetica, Arial, sans-serif" font-size="10" fill="#59636e">Aug</text>
  <text x="268" y="26" font-family="-apple-system, BlinkMacSystemFont, 'Segoe UI', Helvetica, Arial, sans-serif" font-size="10" fill="#59636e">Sep</text>
  <text x="324" y="26" font-family="-apple-system, BlinkMacSystemFont, 'Segoe UI', Helvetica, Arial, sans-serif" font-size="10" fill="#59636e">Oct</text>
  <text x="380" y="26" font-family="-apple-system, BlinkMacSystemFont, 'Segoe UI', Helvetica, Arial, sans-serif" font-size="10" fill="#59636e">Nov</text>
  <text x="450" y="26" font-family="-apple-system, BlinkMacSystemFont, 'Segoe UI', Helvetica, Arial, sans-serif" font-size="10" fill="#59636e">Dec</text>
  <text x="506" y="26" font-family="-apple-system, BlinkMacSystemFont, 'Segoe UI', Helvetica, Arial, sans-serif" font-size="10" fill="#59636e">Jan</text>
  <text x="562" y="26" font-family="-apple-system, BlinkMacSystemFont, 'Segoe UI', Helvetica, Arial, sans-serif" font-size="10" fill="#59636e">Feb</text>
  <text x="618" y="26" font-family="-apple-system, BlinkMacSystemFont, 'Segoe UI', Helvetica, Arial, sans-serif" font-size="10" fill="#59636e">Mar</text>
  <text x="688" y="26" font-family="-apple-system, BlinkMacSystemFont, 'Segoe UI', Helvetica, Arial, sans-serif" font-size="10" fill="#59636e">Apr</text>
  <text x="22" y="60" font-family="-apple-system, BlinkMacSystemFont, 'Segoe UI', Helvetica, Arial, sans-serif" font-size="10" fill="#59636e" text-anchor="end">Mon</text><text x="22" y="88" font-family="-apple-system, BlinkMacSystemFont, 'Segoe UI', Helvetica, Arial, sans-serif" font-size="10" fill="#59636e" text-anchor="end">Wed</text><text x="22" y="116" font-family="-apple-system, BlinkMacSystemFont, 'Segoe UI', Helvetica, Arial, sans-serif" font-size="10" fill="#59636e" text-anchor="end">Fri</text>
  <rect x="30" y="36" width="11" height="11" rx="2" ry="2" fill="#9be9a8"><title>1 on 2025-05-11</title></rect><rect x="30" y="50" width="11" height="11" rx="2" ry="2" fill="#9be9a8"><title>16 on 2025-05-12</title></rect><rect x="30" y="64" width="11" height="11" rx="2" ry="2" fill="#9be9a8"><title>1 on 2025-05-13</title></rect><rect x="30" y="78" width="11" height="11" rx="2" ry="2" fill="#9be9a8"><title>23 on 2025-05-14</title></rect><rect x="30" y="92" width="11" height="11" rx="2" ry="2" fill="#9be9a8"><title>18 on 2025-05-15</title></rect><rect x="30" y="106" width="11" height="11" rx="2" ry="2" fill="#9be9a8"><title>1 on 2025-05-16</title></rect><rect x="30" y="120" width="11" height="11" rx="2" ry="2" fill="#9be9a8"><title>1 on 2025-05-17</title></rect><rect x="44" y="36" width="11" height="11" rx="2" ry="2" fill="#9be9a8"><title>1 on 2025-05-18</title></rect><rect x="44" y="50" width="11" height="11" rx="2" ry="2" fill="#9be9a8"><title>13 on 2025-05-19</title></rect><rect x="44" y="64" width="11" height="11" rx="2" ry="2" fill="#9be9a8"><title>9 on 2025-05-20</title></rect><rect x="44" y="78" width="11" height="11" rx="2" ry="2" fill="#9be9a8"><title>2 on 2025-05-21</title></rect><rect x="44" y="92" width="11" height="11" rx="2" ry="2" fill="#9be9a8"><title>8 on 2025-05-22</title></rect><rect x="44" y="106" width="11" height="11" rx="2" ry="2" fill="#9be9a8"><title>1 on 2025-05-23</title></rect><rect x="44" y="120" width="11" height="11" rx="2" ry="2" fill="#9be9a8"><title>1 on 2025-05-24</title></rect><rect x="58" y="36" width="11" height="11" rx="2" ry="2" fill="#9be9a8"><title>1 on 2025-05-25</title></rect><rect x="58" y="50" width="11" height="11" rx="2" ry="2" fill="#9be9a8"><title>17 on 2025-05-26</title></rect><rect x="58" y="64" width="11" height="11" rx="2" ry="2" fill="#9be9a8"><title>32 on 2025-05-27</title></rect><rect x="58" y="78" width="11" height="11" rx="2" ry="2" fill="#9be9a8"><title>17 on 2025-05-28</title></rect><rect x="58" y="92" width="11" height="11" rx="2" ry="2" fill="#9be9a8"><title>13 on 2025-05-29</title></rect><rect x="58" y="106" width="11" height="11" rx="2" ry="2" fill="#9be9a8"><title>1 on 2025-05-30</title></rect><rect x="58" y="120" width="11" height="11" rx="2" ry="2" fill="#9be9a8"><title>1 on 2025-05-31</title></rect><rect x="72" y="36" width="11" height="11" rx="2" ry="2" fill="#9be9a8"><title>1 on 2025-06-01</title></rect><rect x="72" y="50" width="11" height="11" rx="2" ry="2" fill="#9be9a8"><title>27 on 2025-06-02</title></rect><rect x="72" y="64" width="11" height="11" rx="2" ry="2" fill="#9be9a8"><title>18 on 2025-06-03</title></rect><rect x="72" y="78" width="11" height="11" rx="2" ry="2" fill="#9be9a8"><title>6 on 2025-06-04</title></rect><rect x="72" y="92" width="11" height="11" rx="2" ry="2" fill="#9be9a8"><title>36 on 2025-06-05</title></rect><rect x="72" y="106" width="11" height="11" rx="2" ry="2" fill="#9be9a8"><title>24 on 2025-06-06</title></rect><rect x="72" y="120" width="11" height="11" rx="2" ry="2" fill="#9be9a8"><title>1 on 2025-06-07</title></rect><rect x="86" y="36" width="11" height="11" rx="2" ry="2" fill="#9be9a8"><title>1 on 2025-06-08</title></rect><rect x="86" y="50" width="11" height="11" rx="2" ry="2" fill="#9be9a8"><title>3 on 2025-06-09</title></rect><rect x="86" y="64" width="11" height="11" rx="2" ry="2" fill="#9be9a8"><title>3 on 2025-06-10</title></rect><rect x="86" y="78" width="11" height="11" rx="2" ry="2" fill="#9be9a8"><title>7 on 2025-06-11</title></rect><rect x="86" y="92" width="11" height="11" rx="2" ry="2" fill="#9be9a8"><title>1 on 2025-06-12</title></rect><rect x="86" y="106" width="11" height="11" rx="2" ry="2" fill="#9be9a8"><title>1 on 2025-06-13</title></rect><rect x="86" y="120" width="11" height="11" rx="2" ry="2" fill="#9be9a8"><title>1 on 2025-06-14</title></rect><rect x="100" y="36" width="11" height="11" rx="2" ry="2" fill="#9be9a8"><title>1 on 2025-06-15</title></rect><rect x="100" y="50" width="11" height="11" rx="2" ry="2" fill="#9be9a8"><title>1 on 2025-06-16</title></rect><rect x="100" y="64" width="11" height="11" rx="2" ry="2" fill="#9be9a8"><title>4 on 2025-06-17</title></rect><rect x="100" y="78" width="11" height="11" rx="2" ry="2" fill="#9be9a8"><title>1 on 2025-06-18</title></rect><rect x="100" y="92" width="11" height="11" rx="2" ry="2" fill="#9be9a8"><title>1 on 2025-06-19</title></rect><rect x="100" y="106" width="11" height="11" rx="2" ry="2" fill="#9be9a8"><title>20 on 2025-06-20</title></rect><rect x="100" y="120" width="11" height="11" rx="2" ry="2" fill="#9be9a8"><title>7 on 2025-06-21</title></rect><rect x="114" y="36" width="11" height="11" rx="2" ry="2" fill="#40c463"><title>146 on 2025-06-22</title></rect><rect x="114" y="50" width="11" height="11" rx="2" ry="2" fill="#40c463"><title>92 on 2025-06-23</title></rect><rect x="114" y="64" width="11" height="11" rx="2" ry="2" fill="#9be9a8"><title>2 on 2025-06-24</title></rect><rect x="114" y="78" width="11" height="11" rx="2" ry="2" fill="#9be9a8"><title>65 on 2025-06-25</title></rect><rect x="114" y="92" width="11" height="11" rx="2" ry="2" fill="#9be9a8"><title>14 on 2025-06-26</title></rect><rect x="114" y="106" width="11" height="11" rx="2" ry="2" fill="#9be9a8"><title>1 on 2025-06-27</title></rect><rect x="114" y="120" width="11" height="11" rx="2" ry="2" fill="#9be9a8"><title>6 on 2025-06-28</title></rect><rect x="128" y="36" width="11" height="11" rx="2" ry="2" fill="#9be9a8"><title>1 on 2025-06-29</title></rect><rect x="128" y="50" width="11" height="11" rx="2" ry="2" fill="#9be9a8"><title>7 on 2025-06-30</title></rect><rect x="128" y="64" width="11" height="11" rx="2" ry="2" fill="#9be9a8"><title>1 on 2025-07-01</title></rect><rect x="128" y="78" width="11" height="11" rx="2" ry="2" fill="#9be9a8"><title>1 on 2025-07-02</title></rect><rect x="128" y="92" width="11" height="11" rx="2" ry="2" fill="#9be9a8"><title>8 on 2025-07-03</title></rect><rect x="128" y="106" width="11" height="11" rx="2" ry="2" fill="#9be9a8"><title>1 on 2025-07-04</title></rect><rect x="128" y="120" width="11" height="11" rx="2" ry="2" fill="#9be9a8"><title>32 on 2025-07-05</title></rect><rect x="142" y="36" width="11" height="11" rx="2" ry="2" fill="#9be9a8"><title>12 on 2025-07-06</title></rect><rect x="142" y="50" width="11" height="11" rx="2" ry="2" fill="#9be9a8"><title>27 on 2025-07-07</title></rect><rect x="142" y="64" width="11" height="11" rx="2" ry="2" fill="#9be9a8"><title>31 on 2025-07-08</title></rect><rect x="142" y="78" width="11" height="11" rx="2" ry="2" fill="#9be9a8"><title>15 on 2025-07-09</title></rect><rect x="142" y="92" width="11" height="11" rx="2" ry="2" fill="#9be9a8"><title>13 on 2025-07-10</title></rect><rect x="142" y="106" width="11" height="11" rx="2" ry="2" fill="#9be9a8"><title>51 on 2025-07-11</title></rect><rect x="142" y="120" width="11" height="11" rx="2" ry="2" fill="#9be9a8"><title>16 on 2025-07-12</title></rect><rect x="156" y="36" width="11" height="11" rx="2" ry="2" fill="#9be9a8"><title>41 on 2025-07-13</title></rect><rect x="156" y="50" width="11" height="11" rx="2" ry="2" fill="#9be9a8"><title>56 on 2025-07-14</title></rect><rect x="156" y="64" width="11" height="11" rx="2" ry="2" fill="#9be9a8"><title>27 on 2025-07-15</title></rect><rect x="156" y="78" width="11" height="11" rx="2" ry="2" fill="#9be9a8"><title>47 on 2025-07-16</title></rect><rect x="156" y="92" width="11" height="11" rx="2" ry="2" fill="#9be9a8"><title>39 on 2025-07-17</title></rect><rect x="156" y="106" width="11" height="11" rx="2" ry="2" fill="#9be9a8"><title>44 on 2025-07-18</title></rect><rect x="156" y="120" width="11" height="11" rx="2" ry="2" fill="#9be9a8"><title>2 on 2025-07-19</title></rect><rect x="170" y="36" width="11" height="11" rx="2" ry="2" fill="#9be9a8"><title>19 on 2025-07-20</title></rect><rect x="170" y="50" width="11" height="11" rx="2" ry="2" fill="#9be9a8"><title>50 on 2025-07-21</title></rect><rect x="170" y="64" width="11" height="11" rx="2" ry="2" fill="#9be9a8"><title>23 on 2025-07-22</title></rect><rect x="170" y="78" width="11" height="11" rx="2" ry="2" fill="#9be9a8"><title>54 on 2025-07-23</title></rect><rect x="170" y="92" width="11" height="11" rx="2" ry="2" fill="#9be9a8"><title>24 on 2025-07-24</title></rect><rect x="170" y="106" width="11" height="11" rx="2" ry="2" fill="#9be9a8"><title>53 on 2025-07-25</title></rect><rect x="170" y="120" width="11" height="11" rx="2" ry="2" fill="#9be9a8"><title>57 on 2025-07-26</title></rect><rect x="184" y="36" width="11" height="11" rx="2" ry="2" fill="#9be9a8"><title>14 on 2025-07-27</title></rect><rect x="184" y="50" width="11" height="11" rx="2" ry="2" fill="#9be9a8"><title>17 on 2025-07-28</title></rect><rect x="184" y="64" width="11" height="11" rx="2" ry="2" fill="#9be9a8"><title>66 on 2025-07-29</title></rect><rect x="184" y="78" width="11" height="11" rx="2" ry="2" fill="#9be9a8"><title>13 on 2025-07-30</title></rect><rect x="184" y="92" width="11" height="11" rx="2" ry="2" fill="#9be9a8"><title>30 on 2025-07-31</title></rect><rect x="184" y="106" width="11" height="11" rx="2" ry="2" fill="#9be9a8"><title>51 on 2025-08-01</title></rect><rect x="184" y="120" width="11" height="11" rx="2" ry="2" fill="#9be9a8"><title>4 on 2025-08-02</title></rect><rect x="198" y="36" width="11" height="11" rx="2" ry="2" fill="#9be9a8"><title>19 on 2025-08-03</title></rect><rect x="198" y="50" width="11" height="11" rx="2" ry="2" fill="#9be9a8"><title>37 on 2025-08-04</title></rect><rect x="198" y="64" width="11" height="11" rx="2" ry="2" fill="#9be9a8"><title>26 on 2025-08-05</title></rect><rect x="198" y="78" width="11" height="11" rx="2" ry="2" fill="#9be9a8"><title>9 on 2025-08-06</title></rect><rect x="198" y="92" width="11" height="11" rx="2" ry="2" fill="#9be9a8"><title>53 on 2025-08-07</title></rect><rect x="198" y="106" width="11" height="11" rx="2" ry="2" fill="#9be9a8"><title>46 on 2025-08-08</title></rect><rect x="198" y="120" width="11" height="11" rx="2" ry="2" fill="#9be9a8"><title>12 on 2025-08-09</title></rect><rect x="212" y="36" width="11" height="11" rx="2" ry="2" fill="#9be9a8"><title>42 on 2025-08-10</title></rect><rect x="212" y="50" width="11" height="11" rx="2" ry="2" fill="#9be9a8"><title>51 on 2025-08-11</title></rect><rect x="212" y="64" width="11" height="11" rx="2" ry="2" fill="#9be9a8"><title>27 on 2025-08-12</title></rect><rect x="212" y="78" width="11" height="11" rx="2" ry="2" fill="#9be9a8"><title>25 on 2025-08-13</title></rect><rect x="212" y="92" width="11" height="11" rx="2" ry="2" fill="#9be9a8"><title>33 on 2025-08-14</title></rect><rect x="212" y="106" width="11" height="11" rx="2" ry="2" fill="#9be9a8"><title>3 on 2025-08-15</title></rect><rect x="212" y="120" width="11" height="11" rx="2" ry="2" fill="#9be9a8"><title>36 on 2025-08-16</title></rect><rect x="226" y="36" width="11" height="11" rx="2" ry="2" fill="#9be9a8"><title>16 on 2025-08-17</title></rect><rect x="226" y="50" width="11" height="11" rx="2" ry="2" fill="#9be9a8"><title>27 on 2025-08-18</title></rect><rect x="226" y="64" width="11" height="11" rx="2" ry="2" fill="#9be9a8"><title>9 on 2025-08-19</title></rect><rect x="226" y="78" width="11" height="11" rx="2" ry="2" fill="#9be9a8"><title>42 on 2025-08-20</title></rect><rect x="226" y="92" width="11" height="11" rx="2" ry="2" fill="#9be9a8"><title>63 on 2025-08-21</title></rect><rect x="226" y="106" width="11" height="11" rx="2" ry="2" fill="#9be9a8"><title>32 on 2025-08-22</title></rect><rect x="226" y="120" width="11" height="11" rx="2" ry="2" fill="#9be9a8"><title>30 on 2025-08-23</title></rect><rect x="240" y="36" width="11" height="11" rx="2" ry="2" fill="#9be9a8"><title>25 on 2025-08-24</title></rect><rect x="240" y="50" width="11" height="11" rx="2" ry="2" fill="#9be9a8"><title>33 on 2025-08-25</title></rect><rect x="240" y="64" width="11" height="11" rx="2" ry="2" fill="#9be9a8"><title>18 on 2025-08-26</title></rect><rect x="240" y="78" width="11" height="11" rx="2" ry="2" fill="#9be9a8"><title>63 on 2025-08-27</title></rect><rect x="240" y="92" width="11" height="11" rx="2" ry="2" fill="#9be9a8"><title>70 on 2025-08-28</title></rect><rect x="240" y="106" width="11" height="11" rx="2" ry="2" fill="#9be9a8"><title>69 on 2025-08-29</title></rect><rect x="240" y="120" width="11" height="11" rx="2" ry="2" fill="#9be9a8"><title>31 on 2025-08-30</title></rect><rect x="254" y="36" width="11" height="11" rx="2" ry="2" fill="#40c463"><title>142 on 2025-08-31</title></rect><rect x="254" y="50" width="11" height="11" rx="2" ry="2" fill="#9be9a8"><title>49 on 2025-09-01</title></rect><rect x="254" y="64" width="11" height="11" rx="2" ry="2" fill="#40c463"><title>113 on 2025-09-02</title></rect><rect x="254" y="78" width="11" height="11" rx="2" ry="2" fill="#40c463"><title>140 on 2025-09-03</title></rect><rect x="254" y="92" width="11" height="11" rx="2" ry="2" fill="#40c463"><title>115 on 2025-09-04</title></rect><rect x="254" y="106" width="11" height="11" rx="2" ry="2" fill="#9be9a8"><title>65 on 2025-09-05</title></rect><rect x="254" y="120" width="11" height="11" rx="2" ry="2" fill="#9be9a8"><title>34 on 2025-09-06</title></rect><rect x="268" y="36" width="11" height="11" rx="2" ry="2" fill="#9be9a8"><title>74 on 2025-09-07</title></rect><rect x="268" y="50" width="11" height="11" rx="2" ry="2" fill="#9be9a8"><title>50 on 2025-09-08</title></rect><rect x="268" y="64" width="11" height="11" rx="2" ry="2" fill="#9be9a8"><title>37 on 2025-09-09</title></rect><rect x="268" y="78" width="11" height="11" rx="2" ry="2" fill="#9be9a8"><title>30 on 2025-09-10</title></rect><rect x="268" y="92" width="11" height="11" rx="2" ry="2" fill="#9be9a8"><title>19 on 2025-09-11</title></rect><rect x="268" y="106" width="11" height="11" rx="2" ry="2" fill="#9be9a8"><title>30 on 2025-09-12</title></rect><rect x="268" y="120" width="11" height="11" rx="2" ry="2" fill="#9be9a8"><title>5 on 2025-09-13</title></rect><rect x="282" y="36" width="11" height="11" rx="2" ry="2" fill="#9be9a8"><title>12 on 2025-09-14</title></rect><rect x="282" y="50" width="11" height="11" rx="2" ry="2" fill="#9be9a8"><title>36 on 2025-09-15</title></rect><rect x="282" y="64" width="11" height="11" rx="2" ry="2" fill="#9be9a8"><title>18 on 2025-09-16</title></rect><rect x="282" y="78" width="11" height="11" rx="2" ry="2" fill="#9be9a8"><title>85 on 2025-09-17</title></rect><rect x="282" y="92" width="11" height="11" rx="2" ry="2" fill="#9be9a8"><title>87 on 2025-09-18</title></rect><rect x="282" y="106" width="11" height="11" rx="2" ry="2" fill="#9be9a8"><title>19 on 2025-09-19</title></rect><rect x="282" y="120" width="11" height="11" rx="2" ry="2" fill="#9be9a8"><title>23 on 2025-09-20</title></rect><rect x="296" y="36" width="11" height="11" rx="2" ry="2" fill="#9be9a8"><title>38 on 2025-09-21</title></rect><rect x="296" y="50" width="11" height="11" rx="2" ry="2" fill="#9be9a8"><title>16 on 2025-09-22</title></rect><rect x="296" y="64" width="11" height="11" rx="2" ry="2" fill="#9be9a8"><title>4 on 2025-09-23</title></rect><rect x="296" y="78" width="11" height="11" rx="2" ry="2" fill="#9be9a8"><title>71 on 2025-09-24</title></rect><rect x="296" y="92" width="11" height="11" rx="2" ry="2" fill="#9be9a8"><title>15 on 2025-09-25</title></rect><rect x="296" y="106" width="11" height="11" rx="2" ry="2" fill="#9be9a8"><title>19 on 2025-09-26</title></rect><rect x="296" y="120" width="11" height="11" rx="2" ry="2" fill="#9be9a8"><title>25 on 2025-09-27</title></rect><rect x="310" y="36" width="11" height="11" rx="2" ry="2" fill="#9be9a8"><title>6 on 2025-09-28</title></rect><rect x="310" y="50" width="11" height="11" rx="2" ry="2" fill="#9be9a8"><title>35 on 2025-09-29</title></rect><rect x="310" y="64" width="11" height="11" rx="2" ry="2" fill="#9be9a8"><title>21 on 2025-09-30</title></rect><rect x="310" y="78" width="11" height="11" rx="2" ry="2" fill="#9be9a8"><title>37 on 2025-10-01</title></rect><rect x="310" y="92" width="11" height="11" rx="2" ry="2" fill="#9be9a8"><title>3 on 2025-10-02</title></rect><rect x="310" y="106" width="11" height="11" rx="2" ry="2" fill="#9be9a8"><title>3 on 2025-10-03</title></rect><rect x="310" y="120" width="11" height="11" rx="2" ry="2" fill="#9be9a8"><title>10 on 2025-10-04</title></rect><rect x="324" y="36" width="11" height="11" rx="2" ry="2" fill="#9be9a8"><title>9 on 2025-10-05</title></rect><rect x="324" y="50" width="11" height="11" rx="2" ry="2" fill="#9be9a8"><title>30 on 2025-10-06</title></rect><rect x="324" y="64" width="11" height="11" rx="2" ry="2" fill="#9be9a8"><title>28 on 2025-10-07</title></rect><rect x="324" y="78" width="11" height="11" rx="2" ry="2" fill="#40c463"><title>120 on 2025-10-08</title></rect><rect x="324" y="92" width="11" height="11" rx="2" ry="2" fill="#9be9a8"><title>30 on 2025-10-09</title></rect><rect x="324" y="106" width="11" height="11" rx="2" ry="2" fill="#9be9a8"><title>55 on 2025-10-10</title></rect><rect x="324" y="120" width="11" height="11" rx="2" ry="2" fill="#9be9a8"><title>17 on 2025-10-11</title></rect><rect x="338" y="36" width="11" height="11" rx="2" ry="2" fill="#9be9a8"><title>3 on 2025-10-12</title></rect><rect x="338" y="50" width="11" height="11" rx="2" ry="2" fill="#9be9a8"><title>15 on 2025-10-13</title></rect><rect x="338" y="64" width="11" height="11" rx="2" ry="2" fill="#9be9a8"><title>35 on 2025-10-14</title></rect><rect x="338" y="78" width="11" height="11" rx="2" ry="2" fill="#9be9a8"><title>55 on 2025-10-15</title></rect><rect x="338" y="92" width="11" height="11" rx="2" ry="2" fill="#9be9a8"><title>34 on 2025-10-16</title></rect><rect x="338" y="106" width="11" height="11" rx="2" ry="2" fill="#9be9a8"><title>7 on 2025-10-17</title></rect><rect x="338" y="120" width="11" height="11" rx="2" ry="2" fill="#9be9a8"><title>17 on 2025-10-18</title></rect><rect x="352" y="36" width="11" height="11" rx="2" ry="2" fill="#9be9a8"><title>3 on 2025-10-19</title></rect><rect x="352" y="50" width="11" height="11" rx="2" ry="2" fill="#9be9a8"><title>25 on 2025-10-20</title></rect><rect x="352" y="64" width="11" height="11" rx="2" ry="2" fill="#9be9a8"><title>13 on 2025-10-21</title></rect><rect x="352" y="78" width="11" height="11" rx="2" ry="2" fill="#9be9a8"><title>16 on 2025-10-22</title></rect><rect x="352" y="92" width="11" height="11" rx="2" ry="2" fill="#9be9a8"><title>50 on 2025-10-23</title></rect><rect x="352" y="106" width="11" height="11" rx="2" ry="2" fill="#9be9a8"><title>5 on 2025-10-24</title></rect><rect x="352" y="120" width="11" height="11" rx="2" ry="2" fill="#9be9a8"><title>21 on 2025-10-25</title></rect><rect x="366" y="36" width="11" height="11" rx="2" ry="2" fill="#9be9a8"><title>3 on 2025-10-26</title></rect><rect x="366" y="50" width="11" height="11" rx="2" ry="2" fill="#9be9a8"><title>7 on 2025-10-27</title></rect><rect x="366" y="64" width="11" height="11" rx="2" ry="2" fill="#9be9a8"><title>34 on 2025-10-28</title></rect><rect x="366" y="78" width="11" height="11" rx="2" ry="2" fill="#9be9a8"><title>14 on 2025-10-29</title></rect><rect x="366" y="92" width="11" height="11" rx="2" ry="2" fill="#9be9a8"><title>28 on 2025-10-30</title></rect><rect x="366" y="106" width="11" height="11" rx="2" ry="2" fill="#9be9a8"><title>39 on 2025-10-31</title></rect><rect x="366" y="120" width="11" height="11" rx="2" ry="2" fill="#9be9a8"><title>3 on 2025-11-01</title></rect><rect x="380" y="36" width="11" height="11" rx="2" ry="2" fill="#9be9a8"><title>5 on 2025-11-02</title></rect><rect x="380" y="50" width="11" height="11" rx="2" ry="2" fill="#9be9a8"><title>4 on 2025-11-03</title></rect><rect x="380" y="64" width="11" height="11" rx="2" ry="2" fill="#9be9a8"><title>54 on 2025-11-04</title></rect><rect x="380" y="78" width="11" height="11" rx="2" ry="2" fill="#9be9a8"><title>4 on 2025-11-05</title></rect><rect x="380" y="92" width="11" height="11" rx="2" ry="2" fill="#9be9a8"><title>22 on 2025-11-06</title></rect><rect x="380" y="106" width="11" height="11" rx="2" ry="2" fill="#9be9a8"><title>24 on 2025-11-07</title></rect><rect x="380" y="120" width="11" height="11" rx="2" ry="2" fill="#9be9a8"><title>7 on 2025-11-08</title></rect><rect x="394" y="36" width="11" height="11" rx="2" ry="2" fill="#9be9a8"><title>67 on 2025-11-09</title></rect><rect x="394" y="50" width="11" height="11" rx="2" ry="2" fill="#40c463"><title>92 on 2025-11-10</title></rect><rect x="394" y="64" width="11" height="11" rx="2" ry="2" fill="#9be9a8"><title>75 on 2025-11-11</title></rect><rect x="394" y="78" width="11" height="11" rx="2" ry="2" fill="#9be9a8"><title>22 on 2025-11-12</title></rect><rect x="394" y="92" width="11" height="11" rx="2" ry="2" fill="#9be9a8"><title>36 on 2025-11-13</title></rect><rect x="394" y="106" width="11" height="11" rx="2" ry="2" fill="#9be9a8"><title>6 on 2025-11-14</title></rect><rect x="394" y="120" width="11" height="11" rx="2" ry="2" fill="#9be9a8"><title>10 on 2025-11-15</title></rect><rect x="408" y="36" width="11" height="11" rx="2" ry="2" fill="#9be9a8"><title>3 on 2025-11-16</title></rect><rect x="408" y="50" width="11" height="11" rx="2" ry="2" fill="#9be9a8"><title>3 on 2025-11-17</title></rect><rect x="408" y="64" width="11" height="11" rx="2" ry="2" fill="#9be9a8"><title>33 on 2025-11-18</title></rect><rect x="408" y="78" width="11" height="11" rx="2" ry="2" fill="#9be9a8"><title>76 on 2025-11-19</title></rect><rect x="408" y="92" width="11" height="11" rx="2" ry="2" fill="#9be9a8"><title>25 on 2025-11-20</title></rect><rect x="408" y="106" width="11" height="11" rx="2" ry="2" fill="#9be9a8"><title>19 on 2025-11-21</title></rect><rect x="408" y="120" width="11" height="11" rx="2" ry="2" fill="#9be9a8"><title>3 on 2025-11-22</title></rect><rect x="422" y="36" width="11" height="11" rx="2" ry="2" fill="#9be9a8"><title>12 on 2025-11-23</title></rect><rect x="422" y="50" width="11" height="11" rx="2" ry="2" fill="#9be9a8"><title>9 on 2025-11-24</title></rect><rect x="422" y="64" width="11" height="11" rx="2" ry="2" fill="#9be9a8"><title>48 on 2025-11-25</title></rect><rect x="422" y="78" width="11" height="11" rx="2" ry="2" fill="#9be9a8"><title>20 on 2025-11-26</title></rect><rect x="422" y="92" width="11" height="11" rx="2" ry="2" fill="#9be9a8"><title>19 on 2025-11-27</title></rect><rect x="422" y="106" width="11" height="11" rx="2" ry="2" fill="#9be9a8"><title>4 on 2025-11-28</title></rect><rect x="422" y="120" width="11" height="11" rx="2" ry="2" fill="#9be9a8"><title>14 on 2025-11-29</title></rect><rect x="436" y="36" width="11" height="11" rx="2" ry="2" fill="#9be9a8"><title>3 on 2025-11-30</title></rect><rect x="436" y="50" width="11" height="11" rx="2" ry="2" fill="#9be9a8"><title>3 on 2025-12-01</title></rect><rect x="436" y="64" width="11" height="11" rx="2" ry="2" fill="#9be9a8"><title>3 on 2025-12-02</title></rect><rect x="436" y="78" width="11" height="11" rx="2" ry="2" fill="#9be9a8"><title>35 on 2025-12-03</title></rect><rect x="436" y="92" width="11" height="11" rx="2" ry="2" fill="#9be9a8"><title>6 on 2025-12-04</title></rect><rect x="436" y="106" width="11" height="11" rx="2" ry="2" fill="#9be9a8"><title>29 on 2025-12-05</title></rect><rect x="436" y="120" width="11" height="11" rx="2" ry="2" fill="#9be9a8"><title>3 on 2025-12-06</title></rect><rect x="450" y="36" width="11" height="11" rx="2" ry="2" fill="#9be9a8"><title>3 on 2025-12-07</title></rect><rect x="450" y="50" width="11" height="11" rx="2" ry="2" fill="#9be9a8"><title>6 on 2025-12-08</title></rect><rect x="450" y="64" width="11" height="11" rx="2" ry="2" fill="#9be9a8"><title>42 on 2025-12-09</title></rect><rect x="450" y="78" width="11" height="11" rx="2" ry="2" fill="#9be9a8"><title>3 on 2025-12-10</title></rect><rect x="450" y="92" width="11" height="11" rx="2" ry="2" fill="#9be9a8"><title>17 on 2025-12-11</title></rect><rect x="450" y="106" width="11" height="11" rx="2" ry="2" fill="#9be9a8"><title>35 on 2025-12-12</title></rect><rect x="450" y="120" width="11" height="11" rx="2" ry="2" fill="#9be9a8"><title>3 on 2025-12-13</title></rect><rect x="464" y="36" width="11" height="11" rx="2" ry="2" fill="#9be9a8"><title>3 on 2025-12-14</title></rect><rect x="464" y="50" width="11" height="11" rx="2" ry="2" fill="#9be9a8"><title>3 on 2025-12-15</title></rect><rect x="464" y="64" width="11" height="11" rx="2" ry="2" fill="#9be9a8"><title>40 on 2025-12-16</title></rect><rect x="464" y="78" width="11" height="11" rx="2" ry="2" fill="#9be9a8"><title>17 on 2025-12-17</title></rect><rect x="464" y="92" width="11" height="11" rx="2" ry="2" fill="#9be9a8"><title>3 on 2025-12-18</title></rect><rect x="464" y="106" width="11" height="11" rx="2" ry="2" fill="#9be9a8"><title>3 on 2025-12-19</title></rect><rect x="464" y="120" width="11" height="11" rx="2" ry="2" fill="#9be9a8"><title>5 on 2025-12-20</title></rect><rect x="478" y="36" width="11" height="11" rx="2" ry="2" fill="#9be9a8"><title>3 on 2025-12-21</title></rect><rect x="478" y="50" width="11" height="11" rx="2" ry="2" fill="#9be9a8"><title>60 on 2025-12-22</title></rect><rect x="478" y="64" width="11" height="11" rx="2" ry="2" fill="#9be9a8"><title>5 on 2025-12-23</title></rect><rect x="478" y="78" width="11" height="11" rx="2" ry="2" fill="#9be9a8"><title>3 on 2025-12-24</title></rect><rect x="478" y="92" width="11" height="11" rx="2" ry="2" fill="#9be9a8"><title>2 on 2025-12-25</title></rect><rect x="478" y="106" width="11" height="11" rx="2" ry="2" fill="#9be9a8"><title>3 on 2025-12-26</title></rect><rect x="478" y="120" width="11" height="11" rx="2" ry="2" fill="#9be9a8"><title>3 on 2025-12-27</title></rect><rect x="492" y="36" width="11" height="11" rx="2" ry="2" fill="#9be9a8"><title>54 on 2025-12-28</title></rect><rect x="492" y="50" width="11" height="11" rx="2" ry="2" fill="#9be9a8"><title>41 on 2025-12-29</title></rect><rect x="492" y="64" width="11" height="11" rx="2" ry="2" fill="#9be9a8"><title>3 on 2025-12-30</title></rect><rect x="492" y="78" width="11" height="11" rx="2" ry="2" fill="#9be9a8"><title>3 on 2025-12-31</title></rect><rect x="492" y="92" width="11" height="11" rx="2" ry="2" fill="#9be9a8"><title>44 on 2026-01-01</title></rect><rect x="492" y="106" width="11" height="11" rx="2" ry="2" fill="#9be9a8"><title>3 on 2026-01-02</title></rect><rect x="492" y="120" width="11" height="11" rx="2" ry="2" fill="#9be9a8"><title>3 on 2026-01-03</title></rect><rect x="506" y="36" width="11" height="11" rx="2" ry="2" fill="#9be9a8"><title>3 on 2026-01-04</title></rect><rect x="506" y="50" width="11" height="11" rx="2" ry="2" fill="#9be9a8"><title>3 on 2026-01-05</title></rect><rect x="506" y="64" width="11" height="11" rx="2" ry="2" fill="#9be9a8"><title>3 on 2026-01-06</title></rect><rect x="506" y="78" width="11" height="11" rx="2" ry="2" fill="#9be9a8"><title>3 on 2026-01-07</title></rect><rect x="506" y="92" width="11" height="11" rx="2" ry="2" fill="#9be9a8"><title>3 on 2026-01-08</title></rect><rect x="506" y="106" width="11" height="11" rx="2" ry="2" fill="#9be9a8"><title>46 on 2026-01-09</title></rect><rect x="506" y="120" width="11" height="11" rx="2" ry="2" fill="#9be9a8"><title>3 on 2026-01-10</title></rect><rect x="520" y="36" width="11" height="11" rx="2" ry="2" fill="#9be9a8"><title>3 on 2026-01-11</title></rect><rect x="520" y="50" width="11" height="11" rx="2" ry="2" fill="#9be9a8"><title>3 on 2026-01-12</title></rect><rect x="520" y="64" width="11" height="11" rx="2" ry="2" fill="#9be9a8"><title>3 on 2026-01-13</title></rect><rect x="520" y="78" width="11" height="11" rx="2" ry="2" fill="#9be9a8"><title>30 on 2026-01-14</title></rect><rect x="520" y="92" width="11" height="11" rx="2" ry="2" fill="#9be9a8"><title>3 on 2026-01-15</title></rect><rect x="520" y="106" width="11" height="11" rx="2" ry="2" fill="#9be9a8"><title>62 on 2026-01-16</title></rect><rect x="520" y="120" width="11" height="11" rx="2" ry="2" fill="#9be9a8"><title>5 on 2026-01-17</title></rect><rect x="534" y="36" width="11" height="11" rx="2" ry="2" fill="#9be9a8"><title>3 on 2026-01-18</title></rect><rect x="534" y="50" width="11" height="11" rx="2" ry="2" fill="#9be9a8"><title>36 on 2026-01-19</title></rect><rect x="534" y="64" width="11" height="11" rx="2" ry="2" fill="#9be9a8"><title>3 on 2026-01-20</title></rect><rect x="534" y="78" width="11" height="11" rx="2" ry="2" fill="#9be9a8"><title>3 on 2026-01-21</title></rect><rect x="534" y="92" width="11" height="11" rx="2" ry="2" fill="#9be9a8"><title>36 on 2026-01-22</title></rect><rect x="534" y="106" width="11" height="11" rx="2" ry="2" fill="#9be9a8"><title>3 on 2026-01-23</title></rect><rect x="534" y="120" width="11" height="11" rx="2" ry="2" fill="#9be9a8"><title>21 on 2026-01-24</title></rect><rect x="548" y="36" width="11" height="11" rx="2" ry="2" fill="#9be9a8"><title>8 on 2026-01-25</title></rect><rect x="548" y="50" width="11" height="11" rx="2" ry="2" fill="#9be9a8"><title>4 on 2026-01-26</title></rect><rect x="548" y="64" width="11" height="11" rx="2" ry="2" fill="#9be9a8"><title>39 on 2026-01-27</title></rect><rect x="548" y="78" width="11" height="11" rx="2" ry="2" fill="#9be9a8"><title>4 on 2026-01-28</title></rect><rect x="548" y="92" width="11" height="11" rx="2" ry="2" fill="#9be9a8"><title>3 on 2026-01-29</title></rect><rect x="548" y="106" width="11" height="11" rx="2" ry="2" fill="#9be9a8"><title>3 on 2026-01-30</title></rect><rect x="548" y="120" width="11" height="11" rx="2" ry="2" fill="#9be9a8"><title>5 on 2026-01-31</title></rect><rect x="562" y="36" width="11" height="11" rx="2" ry="2" fill="#9be9a8"><title>4 on 2026-02-01</title></rect><rect x="562" y="50" width="11" height="11" rx="2" ry="2" fill="#9be9a8"><title>4 on 2026-02-02</title></rect><rect x="562" y="64" width="11" height="11" rx="2" ry="2" fill="#40c463"><title>145 on 2026-02-03</title></rect><rect x="562" y="78" width="11" height="11" rx="2" ry="2" fill="#216e39"><title>281 on 2026-02-04</title></rect><rect x="562" y="92" width="11" height="11" rx="2" ry="2" fill="#9be9a8"><title>90 on 2026-02-05</title></rect><rect x="562" y="106" width="11" height="11" rx="2" ry="2" fill="#9be9a8"><title>54 on 2026-02-06</title></rect><rect x="562" y="120" width="11" height="11" rx="2" ry="2" fill="#9be9a8"><title>31 on 2026-02-07</title></rect><rect x="576" y="36" width="11" height="11" rx="2" ry="2" fill="#9be9a8"><title>21 on 2026-02-08</title></rect><rect x="576" y="50" width="11" height="11" rx="2" ry="2" fill="#9be9a8"><title>78 on 2026-02-09</title></rect><rect x="576" y="64" width="11" height="11" rx="2" ry="2" fill="#9be9a8"><title>54 on 2026-02-10</title></rect><rect x="576" y="78" width="11" height="11" rx="2" ry="2" fill="#9be9a8"><title>11 on 2026-02-11</title></rect><rect x="576" y="92" width="11" height="11" rx="2" ry="2" fill="#9be9a8"><title>76 on 2026-02-12</title></rect><rect x="576" y="106" width="11" height="11" rx="2" ry="2" fill="#40c463"><title>94 on 2026-02-13</title></rect><rect x="576" y="120" width="11" height="11" rx="2" ry="2" fill="#9be9a8"><title>33 on 2026-02-14</title></rect><rect x="590" y="36" width="11" height="11" rx="2" ry="2" fill="#9be9a8"><title>38 on 2026-02-15</title></rect><rect x="590" y="50" width="11" height="11" rx="2" ry="2" fill="#216e39"><title>301 on 2026-02-16</title></rect><rect x="590" y="64" width="11" height="11" rx="2" ry="2" fill="#216e39"><title>278 on 2026-02-17</title></rect><rect x="590" y="78" width="11" height="11" rx="2" ry="2" fill="#30a14e"><title>215 on 2026-02-18</title></rect><rect x="590" y="92" width="11" height="11" rx="2" ry="2" fill="#30a14e"><title>254 on 2026-02-19</title></rect><rect x="590" y="106" width="11" height="11" rx="2" ry="2" fill="#40c463"><title>122 on 2026-02-20</title></rect><rect x="590" y="120" width="11" height="11" rx="2" ry="2" fill="#40c463"><title>101 on 2026-02-21</title></rect><rect x="604" y="36" width="11" height="11" rx="2" ry="2" fill="#9be9a8"><title>27 on 2026-02-22</title></rect><rect x="604" y="50" width="11" height="11" rx="2" ry="2" fill="#40c463"><title>147 on 2026-02-23</title></rect><rect x="604" y="64" width="11" height="11" rx="2" ry="2" fill="#30a14e"><title>186 on 2026-02-24</title></rect><rect x="604" y="78" width="11" height="11" rx="2" ry="2" fill="#40c463"><title>147 on 2026-02-25</title></rect><rect x="604" y="92" width="11" height="11" rx="2" ry="2" fill="#30a14e"><title>254 on 2026-02-26</title></rect><rect x="604" y="106" width="11" height="11" rx="2" ry="2" fill="#40c463"><title>137 on 2026-02-27</title></rect><rect x="604" y="120" width="11" height="11" rx="2" ry="2" fill="#9be9a8"><title>76 on 2026-02-28</title></rect><rect x="618" y="36" width="11" height="11" rx="2" ry="2" fill="#216e39"><title>361 on 2026-03-01</title></rect><rect x="618" y="50" width="11" height="11" rx="2" ry="2" fill="#40c463"><title>150 on 2026-03-02</title></rect><rect x="618" y="64" width="11" height="11" rx="2" ry="2" fill="#30a14e"><title>251 on 2026-03-03</title></rect><rect x="618" y="78" width="11" height="11" rx="2" ry="2" fill="#30a14e"><title>208 on 2026-03-04</title></rect><rect x="618" y="92" width="11" height="11" rx="2" ry="2" fill="#9be9a8"><title>34 on 2026-03-05</title></rect><rect x="618" y="106" width="11" height="11" rx="2" ry="2" fill="#40c463"><title>135 on 2026-03-06</title></rect><rect x="618" y="120" width="11" height="11" rx="2" ry="2" fill="#40c463"><title>124 on 2026-03-07</title></rect><rect x="632" y="36" width="11" height="11" rx="2" ry="2" fill="#40c463"><title>130 on 2026-03-08</title></rect><rect x="632" y="50" width="11" height="11" rx="2" ry="2" fill="#9be9a8"><title>66 on 2026-03-09</title></rect><rect x="632" y="64" width="11" height="11" rx="2" ry="2" fill="#40c463"><title>143 on 2026-03-10</title></rect><rect x="632" y="78" width="11" height="11" rx="2" ry="2" fill="#9be9a8"><title>66 on 2026-03-11</title></rect><rect x="632" y="92" width="11" height="11" rx="2" ry="2" fill="#30a14e"><title>182 on 2026-03-12</title></rect><rect x="632" y="106" width="11" height="11" rx="2" ry="2" fill="#40c463"><title>149 on 2026-03-13</title></rect><rect x="632" y="120" width="11" height="11" rx="2" ry="2" fill="#40c463"><title>122 on 2026-03-14</title></rect><rect x="646" y="36" width="11" height="11" rx="2" ry="2" fill="#9be9a8"><title>48 on 2026-03-15</title></rect><rect x="646" y="50" width="11" height="11" rx="2" ry="2" fill="#40c463"><title>140 on 2026-03-16</title></rect><rect x="646" y="64" width="11" height="11" rx="2" ry="2" fill="#40c463"><title>143 on 2026-03-17</title></rect><rect x="646" y="78" width="11" height="11" rx="2" ry="2" fill="#9be9a8"><title>84 on 2026-03-18</title></rect><rect x="646" y="92" width="11" height="11" rx="2" ry="2" fill="#9be9a8"><title>71 on 2026-03-19</title></rect><rect x="646" y="106" width="11" height="11" rx="2" ry="2" fill="#9be9a8"><title>65 on 2026-03-20</title></rect><rect x="646" y="120" width="11" height="11" rx="2" ry="2" fill="#9be9a8"><title>48 on 2026-03-21</title></rect><rect x="660" y="36" width="11" height="11" rx="2" ry="2" fill="#9be9a8"><title>58 on 2026-03-22</title></rect><rect x="660" y="50" width="11" height="11" rx="2" ry="2" fill="#9be9a8"><title>62 on 2026-03-23</title></rect><rect x="660" y="64" width="11" height="11" rx="2" ry="2" fill="#40c463"><title>134 on 2026-03-24</title></rect><rect x="660" y="78" width="11" height="11" rx="2" ry="2" fill="#40c463"><title>107 on 2026-03-25</title></rect><rect x="660" y="92" width="11" height="11" rx="2" ry="2" fill="#40c463"><title>104 on 2026-03-26</title></rect><rect x="660" y="106" width="11" height="11" rx="2" ry="2" fill="#9be9a8"><title>90 on 2026-03-27</title></rect><rect x="660" y="120" width="11" height="11" rx="2" ry="2" fill="#9be9a8"><title>23 on 2026-03-28</title></rect><rect x="674" y="36" width="11" height="11" rx="2" ry="2" fill="#9be9a8"><title>26 on 2026-03-29</title></rect><rect x="674" y="50" width="11" height="11" rx="2" ry="2" fill="#40c463"><title>103 on 2026-03-30</title></rect><rect x="674" y="64" width="11" height="11" rx="2" ry="2" fill="#9be9a8"><title>29 on 2026-03-31</title></rect><rect x="674" y="78" width="11" height="11" rx="2" ry="2" fill="#40c463"><title>162 on 2026-04-01</title></rect><rect x="674" y="92" width="11" height="11" rx="2" ry="2" fill="#9be9a8"><title>89 on 2026-04-02</title></rect><rect x="674" y="106" width="11" height="11" rx="2" ry="2" fill="#9be9a8"><title>59 on 2026-04-03</title></rect><rect x="674" y="120" width="11" height="11" rx="2" ry="2" fill="#216e39"><title>283 on 2026-04-04</title></rect><rect x="688" y="36" width="11" height="11" rx="2" ry="2" fill="#40c463"><title>103 on 2026-04-05</title></rect><rect x="688" y="50" width="11" height="11" rx="2" ry="2" fill="#9be9a8"><title>85 on 2026-04-06</title></rect><rect x="688" y="64" width="11" height="11" rx="2" ry="2" fill="#40c463"><title>152 on 2026-04-07</title></rect><rect x="688" y="78" width="11" height="11" rx="2" ry="2" fill="#40c463"><title>98 on 2026-04-08</title></rect><rect x="688" y="92" width="11" height="11" rx="2" ry="2" fill="#9be9a8"><title>62 on 2026-04-09</title></rect><rect x="688" y="106" width="11" height="11" rx="2" ry="2" fill="#40c463"><title>129 on 2026-04-10</title></rect><rect x="688" y="120" width="11" height="11" rx="2" ry="2" fill="#40c463"><title>93 on 2026-04-11</title></rect><rect x="702" y="36" width="11" height="11" rx="2" ry="2" fill="#9be9a8"><title>35 on 2026-04-12</title></rect><rect x="702" y="50" width="11" height="11" rx="2" ry="2" fill="#9be9a8"><title>54 on 2026-04-13</title></rect><rect x="702" y="64" width="11" height="11" rx="2" ry="2" fill="#40c463"><title>132 on 2026-04-14</title></rect><rect x="702" y="78" width="11" height="11" rx="2" ry="2" fill="#40c463"><title>142 on 2026-04-15</title></rect><rect x="702" y="92" width="11" height="11" rx="2" ry="2" fill="#9be9a8"><title>46 on 2026-04-16</title></rect><rect x="702" y="106" width="11" height="11" rx="2" ry="2" fill="#9be9a8"><title>67 on 2026-04-17</title></rect><rect x="702" y="120" width="11" height="11" rx="2" ry="2" fill="#9be9a8"><title>51 on 2026-04-18</title></rect><rect x="716" y="36" width="11" height="11" rx="2" ry="2" fill="#40c463"><title>104 on 2026-04-19</title></rect><rect x="716" y="50" width="11" height="11" rx="2" ry="2" fill="#40c463"><title>101 on 2026-04-20</title></rect><rect x="716" y="64" width="11" height="11" rx="2" ry="2" fill="#40c463"><title>178 on 2026-04-21</title></rect><rect x="716" y="78" width="11" height="11" rx="2" ry="2" fill="#40c463"><title>136 on 2026-04-22</title></rect><rect x="716" y="92" width="11" height="11" rx="2" ry="2" fill="#40c463"><title>107 on 2026-04-23</title></rect><rect x="716" y="106" width="11" height="11" rx="2" ry="2" fill="#9be9a8"><title>83 on 2026-04-24</title></rect><rect x="716" y="120" width="11" height="11" rx="2" ry="2" fill="#30a14e"><title>199 on 2026-04-25</title></rect><rect x="730" y="36" width="11" height="11" rx="2" ry="2" fill="#40c463"><title>141 on 2026-04-26</title></rect><rect x="730" y="50" width="11" height="11" rx="2" ry="2" fill="#9be9a8"><title>69 on 2026-04-27</title></rect><rect x="730" y="64" width="11" height="11" rx="2" ry="2" fill="#40c463"><title>156 on 2026-04-28</title></rect><rect x="730" y="78" width="11" height="11" rx="2" ry="2" fill="#40c463"><title>118 on 2026-04-29</title></rect><rect x="730" y="92" width="11" height="11" rx="2" ry="2" fill="#40c463"><title>179 on 2026-04-30</title></rect><rect x="730" y="106" width="11" height="11" rx="2" ry="2" fill="#216e39"><title>290 on 2026-05-01</title></rect><rect x="730" y="120" width="11" height="11" rx="2" ry="2" fill="#9be9a8"><title>79 on 2026-05-02</title></rect><rect x="744" y="36" width="11" height="11" rx="2" ry="2" fill="#30a14e"><title>211 on 2026-05-03</title></rect><rect x="744" y="50" width="11" height="11" rx="2" ry="2" fill="#40c463"><title>95 on 2026-05-04</title></rect><rect x="744" y="64" width="11" height="11" rx="2" ry="2" fill="#40c463"><title>153 on 2026-05-05</title></rect><rect x="744" y="78" width="11" height="11" rx="2" ry="2" fill="#9be9a8"><title>77 on 2026-05-06</title></rect><rect x="744" y="92" width="11" height="11" rx="2" ry="2" fill="#30a14e"><title>208 on 2026-05-07</title></rect><rect x="744" y="106" width="11" height="11" rx="2" ry="2" fill="#9be9a8"><title>84 on 2026-05-08</title></rect><rect x="744" y="120" width="11" height="11" rx="2" ry="2" fill="#9be9a8"><title>51 on 2026-05-09</title></rect><rect x="758" y="36" width="11" height="11" rx="2" ry="2" fill="#30a14e"><title>203 on 2026-05-10</title></rect><rect x="758" y="50" width="11" height="11" rx="2" ry="2" fill="#9be9a8"><title>63 on 2026-05-11</title></rect><rect x="758" y="64" width="11" height="11" rx="2" ry="2" fill="#9be9a8"><title>3 on 2026-05-12</title></rect>
  <text x="670" y="143" font-family="-apple-system, BlinkMacSystemFont, 'Segoe UI', Helvetica, Arial, sans-serif" font-size="10" fill="#59636e">Less</text>
  <rect x="698" y="134" width="11" height="11" rx="2" ry="2" fill="#ebedf0" /><rect x="712" y="134" width="11" height="11" rx="2" ry="2" fill="#9be9a8" /><rect x="726" y="134" width="11" height="11" rx="2" ry="2" fill="#40c463" /><rect x="740" y="134" width="11" height="11" rx="2" ry="2" fill="#30a14e" /><rect x="754" y="134" width="11" height="11" rx="2" ry="2" fill="#216e39" />
  <text x="768" y="143" font-family="-apple-system, BlinkMacSystemFont, 'Segoe UI', Helvetica, Arial, sans-serif" font-size="10" fill="#59636e">More</text>
</svg>
